G04 DesignSpark PCB Gerber Version 10.0 Build 5299*
%FSLAX35Y35*%
%MOIN*%
%ADD104R,0.04055X0.07362*%
%ADD101R,0.06142X0.06142*%
%ADD12C,0.01000*%
%ADD97C,0.02000*%
%ADD14C,0.04000*%
%ADD21C,0.04724*%
%ADD98C,0.05000*%
%ADD103C,0.06000*%
%ADD102C,0.06142*%
%ADD99C,0.08000*%
%ADD100C,0.14000*%
X0Y0D02*
D02*
D12*
X9000Y171500D02*
X7800Y170300D01*
Y25100D01*
X9000Y23900D01*
X24600D01*
X43800Y4700D01*
X120600D01*
X138600Y22700D01*
X258600D01*
X14100Y63100D02*
Y141500D01*
X17400Y99500D02*
Y147500D01*
X19100Y73100D02*
Y88100D01*
X24100Y63100D02*
X23400D01*
Y93100D01*
X28200Y83100D02*
Y83900D01*
X27000Y85100D01*
Y89900D01*
X28200Y91100D01*
Y106500D01*
X26600Y108100D01*
X29100Y73100D02*
Y74000D01*
X35400Y80300D01*
Y106700D01*
X36600Y107900D01*
X31600Y88100D02*
Y110600D01*
Y136700D02*
Y148100D01*
X36600Y133100D02*
Y145600D01*
X39100Y73100D02*
Y99500D01*
X42600Y93100D02*
Y110600D01*
X41600D01*
X44100Y63100D02*
Y83100D01*
X46200Y147500D02*
Y140300D01*
X45000Y139100D01*
Y133100D01*
X40200Y128300D01*
X49100Y73100D02*
Y133100D01*
X54100Y63100D02*
Y136700D01*
X60600Y165500D02*
Y137900D01*
X58200Y135500D01*
Y134300D01*
X57000Y133100D01*
Y70700D01*
X60600Y67100D01*
Y44300D01*
X51000Y34700D01*
X15000D01*
X14100Y35600D01*
X60600Y165500D02*
X52200D01*
Y164300D01*
X61800Y107900D02*
Y131900D01*
X66600Y63100D02*
Y137900D01*
X70200Y99500D02*
Y145100D01*
X71600Y73100D02*
Y87500D01*
X74100Y110300D02*
Y111800D01*
X76200Y113900D01*
Y125900D01*
X79800Y129500D01*
X91800D01*
X95400Y133100D01*
Y137900D01*
X106200Y148700D01*
X76600Y63100D02*
Y77500D01*
X75000Y79100D01*
Y83900D01*
X76200Y85100D01*
Y92300D01*
X75000Y93500D01*
X79800Y81500D02*
Y106700D01*
X81600Y73100D02*
Y74900D01*
X87000Y80300D01*
Y106700D01*
X88200D01*
X83400Y87500D02*
Y110300D01*
X84600Y111500D01*
X83400Y140300D02*
Y147500D01*
X88200Y135500D02*
Y146300D01*
X89400Y147500D01*
X91600Y73100D02*
X90600D01*
Y99500D01*
X91600D01*
X95400Y92300D02*
Y110300D01*
X94200D01*
X96600Y63100D02*
Y81500D01*
X101600Y73100D02*
Y135500D01*
X103800Y165500D02*
X60600D01*
X106600Y63100D02*
Y140300D01*
X111000Y106700D02*
Y131900D01*
X115800Y69500D02*
Y137900D01*
X114600Y139100D01*
Y147500D01*
X129000D01*
X119100Y63100D02*
Y142700D01*
X124100Y73100D02*
Y85100D01*
X126600Y110300D02*
Y112700D01*
X127800Y113900D01*
Y122300D01*
X133800Y128300D01*
X143400D01*
X150600Y135500D01*
Y142700D01*
X156600Y148700D01*
X129100Y63100D02*
Y97100D01*
X132600Y80300D02*
Y106700D01*
X131400D01*
X134100Y73100D02*
Y73400D01*
X145800Y85100D01*
Y95900D01*
X142200Y99500D01*
Y111500D01*
X136200Y85100D02*
Y110300D01*
X137400Y137900D02*
Y149900D01*
X142200Y134300D02*
Y147500D01*
X148200Y99500D02*
Y111500D01*
X149100Y63100D02*
Y80300D01*
X154100Y73100D02*
Y82600D01*
Y83100D01*
X156600Y85600D01*
Y98600D01*
X155600Y99600D01*
Y132100D01*
X156600Y133100D01*
Y165500D02*
X103800D01*
X160200Y101900D02*
Y119900D01*
X160600D01*
Y137900D01*
X165000Y110300D02*
Y131900D01*
X166200Y69500D02*
Y80300D01*
Y101900D02*
Y103100D01*
X171000Y107900D01*
Y137900D01*
X168600Y140300D01*
Y147500D01*
X183000D01*
X173400Y142700D02*
Y105500D01*
X171000Y103100D01*
Y98300D01*
X166200Y93500D01*
Y85100D01*
X171600Y79700D01*
Y63100D01*
X176600Y73100D02*
Y81500D01*
X179100Y111500D02*
Y114800D01*
X181800Y117500D01*
Y122300D01*
X189000Y129500D01*
X201000D01*
Y141500D01*
X207000Y147500D01*
X181600Y63100D02*
Y82900D01*
X178200Y86300D01*
X175800D01*
Y101900D01*
X183000Y97100D02*
Y104300D01*
X184200D01*
Y111500D01*
X186600Y73100D02*
X196200Y82700D01*
Y99500D01*
X195000Y100700D01*
Y110300D01*
X196200D01*
X186600Y82700D02*
Y106700D01*
X190200Y110300D01*
X189000Y137900D02*
Y147500D01*
X195000Y134300D02*
Y147500D01*
X199800Y101900D02*
Y106700D01*
X202200D01*
Y110300D01*
X201600Y63100D02*
Y79700D01*
X199800Y81500D01*
X206600Y73100D02*
Y134300D01*
X209400Y165500D02*
X156600D01*
X210600Y99500D02*
Y137900D01*
X211600Y63100D02*
Y81500D01*
X215400Y109100D02*
Y131900D01*
X219000Y77900D02*
Y49100D01*
X205800Y35900D01*
X99400D01*
X94100Y30600D01*
X222600Y100700D02*
Y134300D01*
X226200Y137900D01*
X224100Y63100D02*
Y81500D01*
X216600Y89000D01*
Y100700D01*
X220200Y104300D01*
Y141500D01*
X221400Y142700D01*
X229100Y73100D02*
Y82700D01*
X227400D01*
X226200Y83900D01*
Y106700D01*
X231600Y112700D02*
Y114500D01*
X233400Y116300D01*
Y127100D01*
X235800Y129500D01*
X244200D01*
X250200Y135500D01*
Y137900D01*
X252600Y140300D01*
X234100Y63100D02*
Y76700D01*
X235800Y137900D02*
Y142600D01*
X235100D01*
Y147100D01*
X239100Y73100D02*
Y77000D01*
X235800Y80300D01*
Y100700D01*
X237000Y101900D01*
X241800Y136700D02*
Y148700D01*
X240600D01*
X251400Y98300D02*
Y112700D01*
X254100Y63100D02*
Y78800D01*
X246600Y86300D01*
Y101900D01*
X237000Y111500D01*
X258600Y51500D02*
Y35900D01*
X259100Y73100D02*
Y81000D01*
X256200Y83900D01*
Y147500D01*
X246600D01*
X261000Y103100D02*
Y134300D01*
X263400Y136700D01*
X261305Y90600D02*
X261500D01*
X269400Y82700D01*
Y35900D01*
X262200Y28700D01*
X102600D01*
X262200Y165500D02*
X209400D01*
X265800Y109100D02*
Y131900D01*
X270600Y143900D02*
Y104300D01*
X267000Y100700D01*
Y98300D01*
X271305Y90600D02*
Y86795D01*
X274200Y83900D01*
Y71900D01*
X277800Y68300D01*
X280200D01*
X281400Y67100D01*
Y57500D01*
X283800Y55100D01*
X322200D01*
X328200Y61100D01*
Y131900D01*
X329400Y133100D01*
Y139100D01*
X327000Y141500D01*
Y143900D01*
X324600Y146300D01*
X315000D01*
X313800Y147500D01*
X273000Y99500D02*
Y122300D01*
X277800Y127100D01*
Y146300D01*
X279000Y147500D01*
X287400D01*
X281400Y99500D02*
Y107900D01*
X285000Y111500D01*
X281600Y73100D02*
Y75300D01*
X276600Y80300D01*
Y107900D01*
X286600Y63100D02*
Y104300D01*
X291600Y73100D02*
Y76100D01*
X295800Y80300D01*
Y104300D01*
X299400Y107900D01*
X293400Y136700D02*
Y148700D01*
X299400Y140300D02*
Y148700D01*
X306600Y63100D02*
Y99500D01*
X311600Y73100D02*
Y73300D01*
X316200Y77900D01*
Y140300D01*
X314100Y165500D02*
X262200D01*
X316600Y63100D02*
X320600D01*
X325800Y68300D01*
Y135500D01*
X324600Y136700D01*
D02*
D14*
X9000Y171500D03*
X14100Y141500D03*
X16600Y165500D03*
X17400Y99500D03*
Y147500D03*
X19100Y88100D03*
X23400Y93100D03*
X26600Y108100D03*
X28200Y83100D03*
X31600Y88100D03*
Y110600D03*
Y136700D03*
Y148100D03*
X36600Y107900D03*
Y133100D03*
Y145600D03*
X39100Y99500D03*
X40200Y128300D03*
X41600Y110600D03*
X42600Y93100D03*
X44100Y83100D03*
X46200Y147500D03*
X49100Y133100D03*
X52200Y164300D03*
X54100Y136700D03*
X61800Y107900D03*
Y131900D03*
X66600Y137900D03*
X70200Y99500D03*
Y145100D03*
X71600Y87500D03*
X74100Y110300D03*
X75000Y93500D03*
X79800Y81500D03*
Y106700D03*
X83400Y87500D03*
Y140300D03*
Y147500D03*
X84600Y111500D03*
X88200Y106700D03*
Y135500D03*
X89400Y147500D03*
X91600Y99500D03*
X94200Y110300D03*
X95400Y92300D03*
X96600Y81500D03*
X101600Y135500D03*
X102600Y28700D03*
X103800Y165500D03*
X106200Y148700D03*
X106600Y140300D03*
X111000Y106700D03*
Y131900D03*
X115800Y69500D03*
X119100Y142700D03*
X124100Y85100D03*
X126600Y110300D03*
X129000Y147500D03*
X129100Y97100D03*
X131400Y106700D03*
X132600Y80300D03*
X136200Y85100D03*
Y110300D03*
X137400Y137900D03*
Y149900D03*
X142200Y111500D03*
Y134300D03*
Y147500D03*
X148200Y99500D03*
Y111500D03*
X149100Y80300D03*
X156600Y133100D03*
Y148700D03*
Y165500D03*
X160200Y101900D03*
X160600Y137900D03*
X165000Y110300D03*
Y131900D03*
X166200Y69500D03*
Y80300D03*
Y101900D03*
X173400Y142700D03*
X175800Y101900D03*
X176600Y81500D03*
X179100Y111500D03*
X183000Y97100D03*
Y147500D03*
X184200Y111500D03*
X186600Y82700D03*
X189000Y137900D03*
Y147500D03*
X190200Y110300D03*
X195000Y134300D03*
Y147500D03*
X196200Y110300D03*
X199800Y81500D03*
Y101900D03*
X202200Y110300D03*
X206600Y134300D03*
X207000Y147500D03*
X209400Y165500D03*
X210600Y99500D03*
Y137900D03*
X211600Y81500D03*
X215400Y109100D03*
Y131900D03*
X219000Y77900D03*
X221400Y142700D03*
X222600Y100700D03*
X226200Y106700D03*
Y137900D03*
X231600Y112700D03*
X234100Y76700D03*
X235100Y147100D03*
X235800Y137900D03*
X237000Y101900D03*
Y111500D03*
X240600Y148700D03*
X241800Y136700D03*
X246600Y147500D03*
X251400Y98300D03*
Y112700D03*
X252600Y140300D03*
X258600Y22700D03*
Y35900D03*
Y51500D03*
X261000Y103100D03*
X262200Y165500D03*
X263400Y136700D03*
X265800Y109100D03*
Y131900D03*
X267000Y98300D03*
X270600Y143900D03*
X273000Y99500D03*
X276600Y107900D03*
X281400Y99500D03*
X285000Y111500D03*
X286600Y104300D03*
X287400Y147500D03*
X293400Y136700D03*
Y148700D03*
X299400Y107900D03*
Y140300D03*
Y148700D03*
X306600Y99500D03*
X313800Y147500D03*
X314100Y165500D03*
X316200Y140300D03*
X324600Y136700D03*
D02*
D21*
X14100Y35600D03*
X75124D03*
D02*
D97*
X16600Y165500D02*
X24600D01*
Y171091D01*
X25009Y171500D01*
X24600Y165500D02*
X43100D01*
X49100Y171500D01*
X36191D02*
Y173491D01*
X42600Y179900D01*
X55800D01*
D02*
D98*
X49100Y171500D02*
X69100D01*
X55800Y179900D02*
X57000Y181100D01*
X69100Y171500D02*
X99100D01*
X121600D02*
X99100D01*
X141305D02*
X151600D01*
X141305D02*
X121600D01*
X141305Y190600D02*
Y171500D01*
X151600D02*
X174100D01*
X204100D01*
X226600D01*
X256600D01*
X279100D01*
X306600D01*
D02*
D99*
X49100D03*
X57000Y181100D03*
X69100Y171500D03*
X99100D03*
X121600D03*
X151600D03*
X174100D03*
X204100D03*
X226600D03*
X256600D03*
X279100D03*
X306600D03*
D02*
D100*
X12600Y13100D03*
Y202700D03*
X330600Y13100D03*
Y202700D03*
D02*
D101*
X141305Y190600D03*
D02*
D102*
Y90600D03*
X151305D03*
Y190600D03*
X161305Y90600D03*
Y190600D03*
X171305Y90600D03*
Y190600D03*
X181305Y90600D03*
Y190600D03*
X191305Y90600D03*
Y190600D03*
X201305Y90600D03*
Y190600D03*
X211305Y90600D03*
Y190600D03*
X221305Y90600D03*
Y190600D03*
X231305Y90600D03*
Y190600D03*
X241305Y90600D03*
Y190600D03*
X251305Y90600D03*
Y190600D03*
X261305Y90600D03*
Y190600D03*
X271305Y90600D03*
Y190600D03*
X281305Y90600D03*
Y190600D03*
X291305Y90600D03*
Y190600D03*
X301305Y90600D03*
Y190600D03*
X311305Y90600D03*
Y190600D03*
X321305Y90600D03*
Y190600D03*
D02*
D103*
X14100Y63100D03*
X19100Y73100D03*
X24100Y63100D03*
X29100Y73100D03*
X34100Y63100D03*
X39100Y73100D03*
X44100Y63100D03*
X49100Y73100D03*
X54100Y63100D03*
X66600D03*
X71600Y73100D03*
X76600Y63100D03*
X81600Y73100D03*
X86600Y63100D03*
X91600Y73100D03*
X94100Y10600D03*
Y20600D03*
Y30600D03*
Y40600D03*
X96600Y63100D03*
X101600Y73100D03*
X106600Y63100D03*
X119100D03*
X124100Y73100D03*
X129100Y63100D03*
X134100Y73100D03*
X139100Y63100D03*
X144100Y73100D03*
X149100Y63100D03*
X154100Y73100D03*
X159100Y63100D03*
X171600D03*
X176600Y73100D03*
X181600Y63100D03*
X186600Y73100D03*
X191600Y63100D03*
X196600Y73100D03*
X201600Y63100D03*
X206600Y73100D03*
X211600Y63100D03*
X224100D03*
X229100Y73100D03*
X234100Y63100D03*
X239100Y73100D03*
X244100Y63100D03*
X249100Y73100D03*
X254100Y63100D03*
X259100Y73100D03*
X264100Y63100D03*
X276600D03*
X281600Y73100D03*
X286600Y63100D03*
X291600Y73100D03*
X296600Y63100D03*
X301600Y73100D03*
X306600Y63100D03*
X311600Y73100D03*
X316600Y63100D03*
D02*
D104*
X25009Y171500D03*
X36191D03*
X0Y0D02*
M02*
