G04 DesignSpark PCB Gerber Version 10.0 Build 5299*
%FSLAX35Y35*%
%MOIN*%
%ADD115R,0.03559X0.08677*%
%ADD109R,0.05055X0.08362*%
%ADD106R,0.07142X0.07142*%
%ADD72C,0.05724*%
%ADD108C,0.07000*%
%ADD107C,0.07142*%
%ADD105C,0.15000*%
X0Y0D02*
D02*
D72*
X14100Y35600D03*
X75124D03*
D02*
D105*
X12600Y13100D03*
Y202700D03*
X330600Y13100D03*
Y202700D03*
D02*
D106*
X141305Y190600D03*
D02*
D107*
Y90600D03*
X151305D03*
Y190600D03*
X161305Y90600D03*
Y190600D03*
X171305Y90600D03*
Y190600D03*
X181305Y90600D03*
Y190600D03*
X191305Y90600D03*
Y190600D03*
X201305Y90600D03*
Y190600D03*
X211305Y90600D03*
Y190600D03*
X221305Y90600D03*
Y190600D03*
X231305Y90600D03*
Y190600D03*
X241305Y90600D03*
Y190600D03*
X251305Y90600D03*
Y190600D03*
X261305Y90600D03*
Y190600D03*
X271305Y90600D03*
Y190600D03*
X281305Y90600D03*
Y190600D03*
X291305Y90600D03*
Y190600D03*
X301305Y90600D03*
Y190600D03*
X311305Y90600D03*
Y190600D03*
X321305Y90600D03*
Y190600D03*
D02*
D108*
X14100Y63100D03*
X19100Y73100D03*
X24100Y63100D03*
X29100Y73100D03*
X34100Y63100D03*
X39100Y73100D03*
X44100Y63100D03*
X49100Y73100D03*
X54100Y63100D03*
X66600D03*
X71600Y73100D03*
X76600Y63100D03*
X81600Y73100D03*
X86600Y63100D03*
X91600Y73100D03*
X94100Y10600D03*
Y20600D03*
Y30600D03*
Y40600D03*
X96600Y63100D03*
X101600Y73100D03*
X106600Y63100D03*
X119100D03*
X124100Y73100D03*
X129100Y63100D03*
X134100Y73100D03*
X139100Y63100D03*
X144100Y73100D03*
X149100Y63100D03*
X154100Y73100D03*
X159100Y63100D03*
X171600D03*
X176600Y73100D03*
X181600Y63100D03*
X186600Y73100D03*
X191600Y63100D03*
X196600Y73100D03*
X201600Y63100D03*
X206600Y73100D03*
X211600Y63100D03*
X224100D03*
X229100Y73100D03*
X234100Y63100D03*
X239100Y73100D03*
X244100Y63100D03*
X249100Y73100D03*
X254100Y63100D03*
X259100Y73100D03*
X264100Y63100D03*
X276600D03*
X281600Y73100D03*
X286600Y63100D03*
X291600Y73100D03*
X296600Y63100D03*
X301600Y73100D03*
X306600Y63100D03*
X311600Y73100D03*
X316600Y63100D03*
D02*
D109*
X77809Y167900D03*
X88991D03*
X129009Y166700D03*
X140191D03*
X183409Y167900D03*
X194591D03*
X236209D03*
X247391D03*
X287809Y166700D03*
X298991D03*
D02*
D115*
X11600Y119498D03*
Y156702D03*
X16600Y119498D03*
Y156702D03*
X21600Y119498D03*
Y156702D03*
X26600Y119498D03*
Y156702D03*
X31600Y119498D03*
Y156702D03*
X36600Y119498D03*
Y156702D03*
X41600Y119498D03*
Y156702D03*
X46600Y119498D03*
Y156702D03*
X51600Y119498D03*
Y156702D03*
X56600Y119498D03*
Y156702D03*
X64100Y119498D03*
Y156702D03*
X69100Y119498D03*
Y156702D03*
X74100Y119498D03*
Y156702D03*
X79100Y119498D03*
Y156702D03*
X84100Y119498D03*
Y156702D03*
X89100Y119498D03*
Y156702D03*
X94100Y119498D03*
Y156702D03*
X99100Y119498D03*
Y156702D03*
X104100Y119498D03*
Y156702D03*
X109100Y119498D03*
Y156702D03*
X116600Y119498D03*
Y156702D03*
X121600Y119498D03*
Y156702D03*
X126600Y119498D03*
Y156702D03*
X131600Y119498D03*
Y156702D03*
X136600Y119498D03*
Y156702D03*
X141600Y119498D03*
Y156702D03*
X146600Y119498D03*
Y156702D03*
X151600Y119498D03*
Y156702D03*
X156600Y119498D03*
Y156702D03*
X161600Y119498D03*
Y156702D03*
X169100Y119498D03*
Y156702D03*
X174100Y119498D03*
Y156702D03*
X179100Y119498D03*
Y156702D03*
X184100Y119498D03*
Y156702D03*
X189100Y119498D03*
Y156702D03*
X194100Y119498D03*
Y156702D03*
X199100Y119498D03*
Y156702D03*
X204100Y119498D03*
Y156702D03*
X209100Y119498D03*
Y156702D03*
X214100Y119498D03*
Y156702D03*
X221600Y119498D03*
Y156702D03*
X226600Y119498D03*
Y156702D03*
X231600Y119498D03*
Y156702D03*
X236600Y119498D03*
Y156702D03*
X241600Y119498D03*
Y156702D03*
X246600Y119498D03*
Y156702D03*
X251600Y119498D03*
Y156702D03*
X256600Y119498D03*
Y156702D03*
X261600Y119498D03*
Y156702D03*
X266600Y119498D03*
Y156702D03*
X274100Y119498D03*
Y156702D03*
X279100Y119498D03*
Y156702D03*
X284100Y119498D03*
Y156702D03*
X289100Y119498D03*
Y156702D03*
X294100Y119498D03*
Y156702D03*
X299100Y119498D03*
Y156702D03*
X304100Y119498D03*
Y156702D03*
X309100Y119498D03*
Y156702D03*
X314100Y119498D03*
Y156702D03*
X319100Y119498D03*
Y156702D03*
X0Y0D02*
M02*
