G04 DesignSpark PCB Gerber Version 10.0 Build 5299*
%FSLAX35Y35*%
%MOIN*%
%ADD111C,0.00100*%
%ADD113C,0.00200*%
%ADD112C,0.00400*%
%ADD10C,0.00500*%
%ADD13C,0.00787*%
X0Y0D02*
D02*
D10*
X14100Y36537D02*
Y40287D01*
X16287D01*
X16913Y39975D01*
X17225Y39350D01*
X16913Y38725D01*
X16287Y38413D01*
X14100D01*
X16287D02*
X17225Y36537D01*
X19725D02*
X20975D01*
X20350D02*
Y40287D01*
X19725Y39663D01*
X21100Y127850D02*
X20787Y127537D01*
X20163D01*
X19537D01*
X18913Y127850D01*
X18600Y128475D01*
Y129413D01*
X18913Y129725D01*
X19537Y130037D01*
X20163D01*
X20787Y129725D01*
X21100Y129413D01*
Y129100D01*
X20787Y128787D01*
X20163Y128475D01*
X19537D01*
X18913Y128787D01*
X18600Y129100D01*
X19100Y83100D02*
X54100D01*
Y188100D01*
X49100Y193100D01*
X39100D01*
Y198100D01*
X38100D01*
Y197600D01*
X39100Y196600D01*
X20850Y176537D02*
Y179663D01*
X21163Y179975D01*
X21475D01*
X21787Y179663D01*
X20225Y178725D02*
X21475D01*
X23100Y142100D02*
Y99100D01*
Y187600D02*
Y144100D01*
X24100Y98100D02*
X44100D01*
X24100Y143100D02*
X44100D01*
X24100Y188100D02*
X44100D01*
X29600Y197100D02*
X30600Y198100D01*
X29100D01*
Y193100D01*
X19100D01*
X14100Y188100D01*
Y88100D01*
X33100Y94600D02*
X32787Y95225D01*
X32163Y95537D01*
X31537D01*
X30913Y95225D01*
X30600Y94600D01*
Y93975D01*
X30913Y93350D01*
X31537Y93037D01*
X32163D01*
X32787Y93350D01*
X33100Y93975D01*
Y93037D02*
Y96787D01*
X33725Y173063D02*
X33413Y172750D01*
X32787Y172437D01*
X31850D01*
X31225Y172750D01*
X30913Y173063D01*
X30600Y173687D01*
Y174937D01*
X30913Y175563D01*
X31225Y175875D01*
X31850Y176187D01*
X32787D01*
X33413Y175875D01*
X33725Y175563D01*
X35600Y173375D02*
X35913Y174000D01*
X36537Y174313D01*
X37163D01*
X37787Y174000D01*
X38100Y173375D01*
X37787Y172750D01*
X37163Y172437D01*
X36537D01*
X35913Y172750D01*
X35600Y173375D01*
Y174313D01*
X35913Y175250D01*
X36537Y175875D01*
X37163Y176187D01*
X30600Y198100D02*
X38100D01*
X31600Y192725D02*
X32225Y193037D01*
X33163D01*
X33787Y192725D01*
X34100Y192100D01*
Y191163D01*
X33787Y190850D01*
X33163Y190537D01*
X32537D01*
X31913Y190850D01*
X31600Y191163D01*
Y191475D01*
X31913Y191787D01*
X32537Y192100D01*
X33163D01*
X33787Y191787D01*
X34100Y191475D01*
Y191163D02*
Y190537D01*
X34600Y147600D02*
X34287Y148225D01*
X33663Y148537D01*
X33037D01*
X32413Y148225D01*
X32100Y147600D01*
Y147287D01*
X32413Y146663D01*
X33037Y146350D01*
X33663D01*
X34287Y146663D01*
X34600Y147287D01*
Y148537D02*
Y146037D01*
X34287Y145413D01*
X33663Y145100D01*
X32725D01*
X32100Y145413D01*
X33100Y57600D02*
X36100D01*
X33100Y91100D02*
Y90100D01*
X34600D01*
Y91100D01*
X33600D01*
Y90600D01*
X34100D01*
X34600Y57600D02*
Y59600D01*
X45100Y142100D02*
Y99100D01*
Y187600D02*
Y144100D01*
X47100Y92600D02*
X50100Y95600D01*
Y92600D01*
X50600Y130725D02*
X49975Y131037D01*
X49037D01*
X48413Y130725D01*
X48100Y130100D01*
Y129475D01*
X48413Y128850D01*
X49037Y128537D01*
X49975D01*
X50600Y128850D01*
X48100Y177975D02*
X48413Y177350D01*
X49037Y177037D01*
X49663D01*
X50287Y177350D01*
X50600Y177975D01*
Y178600D01*
X50287Y179225D01*
X49663Y179537D01*
X49037D01*
X48413Y179225D01*
X48100Y178600D01*
Y177037D02*
Y180787D01*
X49100Y88100D02*
Y83100D01*
X54100Y88100D02*
X14100D01*
Y83100D01*
X19100D01*
Y88100D01*
X73600Y127850D02*
X73287Y127537D01*
X72663D01*
X72037D01*
X71413Y127850D01*
X71100Y128475D01*
Y129413D01*
X71413Y129725D01*
X72037Y130037D01*
X72663D01*
X73287Y129725D01*
X73600Y129413D01*
Y129100D01*
X73287Y128787D01*
X72663Y128475D01*
X72037D01*
X71413Y128787D01*
X71100Y129100D01*
X71600Y83100D02*
X106600D01*
Y188100D01*
X101600Y193100D01*
X91600D01*
Y198100D01*
X90600D01*
Y197600D01*
X91600Y196600D01*
X73350Y176537D02*
Y179663D01*
X73663Y179975D01*
X73975D01*
X74287Y179663D01*
X72725Y178725D02*
X73975D01*
X75600Y142100D02*
Y99100D01*
Y187600D02*
Y144100D01*
X76600Y98100D02*
X96600D01*
X76600Y143100D02*
X96600D01*
X76600Y188100D02*
X96600D01*
X82100Y197100D02*
X83100Y198100D01*
X81600D01*
Y193100D01*
X71600D01*
X66600Y188100D01*
Y88100D01*
X85600Y94600D02*
X85287Y95225D01*
X84663Y95537D01*
X84037D01*
X83413Y95225D01*
X83100Y94600D01*
Y93975D01*
X83413Y93350D01*
X84037Y93037D01*
X84663D01*
X85287Y93350D01*
X85600Y93975D01*
Y93037D02*
Y96787D01*
X83100Y198100D02*
X90600D01*
X84100Y192725D02*
X84725Y193037D01*
X85663D01*
X86287Y192725D01*
X86600Y192100D01*
Y191163D01*
X86287Y190850D01*
X85663Y190537D01*
X85037D01*
X84413Y190850D01*
X84100Y191163D01*
Y191475D01*
X84413Y191787D01*
X85037Y192100D01*
X85663D01*
X86287Y191787D01*
X86600Y191475D01*
Y191163D02*
Y190537D01*
X87100Y147600D02*
X86787Y148225D01*
X86163Y148537D01*
X85537D01*
X84913Y148225D01*
X84600Y147600D01*
Y147287D01*
X84913Y146663D01*
X85537Y146350D01*
X86163D01*
X86787Y146663D01*
X87100Y147287D01*
Y148537D02*
Y146037D01*
X86787Y145413D01*
X86163Y145100D01*
X85225D01*
X84600Y145413D01*
X85600Y57600D02*
X88600D01*
X85600Y91100D02*
Y90100D01*
X87100D01*
Y91100D01*
X86100D01*
Y90600D01*
X86600D01*
X87100Y47600D02*
Y3600D01*
X241600D01*
Y47600D01*
X87100D01*
Y57600D02*
Y59600D01*
X97600Y142100D02*
Y99100D01*
Y187600D02*
Y144100D01*
X99600Y92600D02*
X102600Y95600D01*
Y92600D01*
X103100Y130725D02*
X102475Y131037D01*
X101537D01*
X100913Y130725D01*
X100600Y130100D01*
Y129475D01*
X100913Y128850D01*
X101537Y128537D01*
X102475D01*
X103100Y128850D01*
X100600Y177975D02*
X100913Y177350D01*
X101537Y177037D01*
X102163D01*
X102787Y177350D01*
X103100Y177975D01*
Y178600D01*
X102787Y179225D01*
X102163Y179537D01*
X101537D01*
X100913Y179225D01*
X100600Y178600D01*
Y177037D02*
Y180787D01*
X102584Y12239D02*
Y11870D01*
X102461D01*
X102215Y11993D01*
X102092Y12116D01*
X101969Y12362D01*
Y12608D01*
X102092Y12854D01*
X102215Y12977D01*
X102461Y13100D01*
X102954D01*
X103200Y12977D01*
X103322Y12854D01*
X103446Y12608D01*
Y12362D01*
X103322Y12116D01*
X103200Y11993D01*
X102954Y11870D01*
X101969Y11131D02*
X103446D01*
X101969Y9901D01*
X103446D01*
X101969Y9163D02*
X103446D01*
Y8425D01*
X103322Y8179D01*
X103200Y8056D01*
X102954Y7933D01*
X102461D01*
X102215Y8056D01*
X102092Y8179D01*
X101969Y8425D01*
Y9163D01*
X103446Y23100D02*
X101969Y22485D01*
X103446Y21870D01*
X102215Y19901D02*
X102092Y20024D01*
X101969Y20270D01*
Y20639D01*
X102092Y20885D01*
X102215Y21008D01*
X102461Y21131D01*
X102954D01*
X103200Y21008D01*
X103322Y20885D01*
X103446Y20639D01*
Y20270D01*
X103322Y20024D01*
X103200Y19901D01*
X102215Y17933D02*
X102092Y18056D01*
X101969Y18302D01*
Y18671D01*
X102092Y18917D01*
X102215Y19040D01*
X102461Y19163D01*
X102954D01*
X103200Y19040D01*
X103322Y18917D01*
X103446Y18671D01*
Y18302D01*
X103322Y18056D01*
X103200Y17933D01*
X102338Y33100D02*
X102092Y32977D01*
X101969Y32731D01*
Y32239D01*
X102092Y31993D01*
X102338Y31870D01*
X102584Y31993D01*
X102707Y32239D01*
Y32731D01*
X102830Y32977D01*
X103076Y33100D01*
X103322Y32977D01*
X103446Y32731D01*
Y32239D01*
X103322Y31993D01*
X103076Y31870D01*
X102215Y29901D02*
X102092Y30024D01*
X101969Y30270D01*
Y30639D01*
X102092Y30885D01*
X102215Y31008D01*
X102461Y31131D01*
X102954D01*
X103200Y31008D01*
X103322Y30885D01*
X103446Y30639D01*
Y30270D01*
X103322Y30024D01*
X103200Y29901D01*
X103446Y29163D02*
X101969D01*
Y27933D01*
X102338Y43100D02*
X102092Y42977D01*
X101969Y42731D01*
Y42239D01*
X102092Y41993D01*
X102338Y41870D01*
X102584Y41993D01*
X102707Y42239D01*
Y42731D01*
X102830Y42977D01*
X103076Y43100D01*
X103322Y42977D01*
X103446Y42731D01*
Y42239D01*
X103322Y41993D01*
X103076Y41870D01*
X101969Y41131D02*
X103446D01*
Y40393D01*
X103322Y40147D01*
X103200Y40024D01*
X102954Y39901D01*
X102461D01*
X102215Y40024D01*
X102092Y40147D01*
X101969Y40393D01*
Y41131D01*
Y39163D02*
X103446Y38548D01*
X101969Y37933D01*
X102584Y38917D02*
Y38179D01*
X101600Y88100D02*
Y83100D01*
X106600Y88100D02*
X66600D01*
Y83100D01*
X71600D01*
Y88100D01*
X126100Y127850D02*
X125787Y127537D01*
X125163D01*
X124537D01*
X123913Y127850D01*
X123600Y128475D01*
Y129413D01*
X123913Y129725D01*
X124537Y130037D01*
X125163D01*
X125787Y129725D01*
X126100Y129413D01*
Y129100D01*
X125787Y128787D01*
X125163Y128475D01*
X124537D01*
X123913Y128787D01*
X123600Y129100D01*
X124100Y83100D02*
X159100D01*
Y188100D01*
X154100Y193100D01*
X144100D01*
Y198100D01*
X143100D01*
Y197600D01*
X144100Y196600D01*
X125850Y176537D02*
Y179663D01*
X126163Y179975D01*
X126475D01*
X126787Y179663D01*
X125225Y178725D02*
X126475D01*
X128100Y142100D02*
Y99100D01*
Y187600D02*
Y144100D01*
X129100Y98100D02*
X149100D01*
X129100Y143100D02*
X149100D01*
X129100Y188100D02*
X149100D01*
X134600Y197100D02*
X135600Y198100D01*
X134100D01*
Y193100D01*
X124100D01*
X119100Y188100D01*
Y88100D01*
X138100Y94600D02*
X137787Y95225D01*
X137163Y95537D01*
X136537D01*
X135913Y95225D01*
X135600Y94600D01*
Y93975D01*
X135913Y93350D01*
X136537Y93037D01*
X137163D01*
X137787Y93350D01*
X138100Y93975D01*
Y93037D02*
Y96787D01*
X135600Y198100D02*
X143100D01*
X136600Y192725D02*
X137225Y193037D01*
X138163D01*
X138787Y192725D01*
X139100Y192100D01*
Y191163D01*
X138787Y190850D01*
X138163Y190537D01*
X137537D01*
X136913Y190850D01*
X136600Y191163D01*
Y191475D01*
X136913Y191787D01*
X137537Y192100D01*
X138163D01*
X138787Y191787D01*
X139100Y191475D01*
Y191163D02*
Y190537D01*
X139600Y147600D02*
X139287Y148225D01*
X138663Y148537D01*
X138037D01*
X137413Y148225D01*
X137100Y147600D01*
Y147287D01*
X137413Y146663D01*
X138037Y146350D01*
X138663D01*
X139287Y146663D01*
X139600Y147287D01*
Y148537D02*
Y146037D01*
X139287Y145413D01*
X138663Y145100D01*
X137725D01*
X137100Y145413D01*
X138100Y57600D02*
X141100D01*
X138100Y91100D02*
Y90100D01*
X139600D01*
Y91100D01*
X138600D01*
Y90600D01*
X139100D01*
X139600Y57600D02*
Y59600D01*
X150100Y142100D02*
Y99100D01*
Y187600D02*
Y144100D01*
X152100Y92600D02*
X155100Y95600D01*
Y92600D01*
X155600Y130725D02*
X154975Y131037D01*
X154037D01*
X153413Y130725D01*
X153100Y130100D01*
Y129475D01*
X153413Y128850D01*
X154037Y128537D01*
X154975D01*
X155600Y128850D01*
X153100Y177975D02*
X153413Y177350D01*
X154037Y177037D01*
X154663D01*
X155287Y177350D01*
X155600Y177975D01*
Y178600D01*
X155287Y179225D01*
X154663Y179537D01*
X154037D01*
X153413Y179225D01*
X153100Y178600D01*
Y177037D02*
Y180787D01*
X154100Y88100D02*
Y83100D01*
X159100Y88100D02*
X119100D01*
Y83100D01*
X124100D01*
Y88100D01*
X178600Y127850D02*
X178287Y127537D01*
X177663D01*
X177037D01*
X176413Y127850D01*
X176100Y128475D01*
Y129413D01*
X176413Y129725D01*
X177037Y130037D01*
X177663D01*
X178287Y129725D01*
X178600Y129413D01*
Y129100D01*
X178287Y128787D01*
X177663Y128475D01*
X177037D01*
X176413Y128787D01*
X176100Y129100D01*
X176600Y83100D02*
X211600D01*
Y188100D01*
X206600Y193100D01*
X196600D01*
Y198100D01*
X195600D01*
Y197600D01*
X196600Y196600D01*
X178350Y176537D02*
Y179663D01*
X178663Y179975D01*
X178975D01*
X179287Y179663D01*
X177725Y178725D02*
X178975D01*
X180600Y142100D02*
Y99100D01*
Y187600D02*
Y144100D01*
X181600Y98100D02*
X201600D01*
X181600Y143100D02*
X201600D01*
X181600Y188100D02*
X201600D01*
X187100Y197100D02*
X188100Y198100D01*
X186600D01*
Y193100D01*
X176600D01*
X171600Y188100D01*
Y88100D01*
X190600Y94600D02*
X190287Y95225D01*
X189663Y95537D01*
X189037D01*
X188413Y95225D01*
X188100Y94600D01*
Y93975D01*
X188413Y93350D01*
X189037Y93037D01*
X189663D01*
X190287Y93350D01*
X190600Y93975D01*
Y93037D02*
Y96787D01*
X188100Y198100D02*
X195600D01*
X189100Y192725D02*
X189725Y193037D01*
X190663D01*
X191287Y192725D01*
X191600Y192100D01*
Y191163D01*
X191287Y190850D01*
X190663Y190537D01*
X190037D01*
X189413Y190850D01*
X189100Y191163D01*
Y191475D01*
X189413Y191787D01*
X190037Y192100D01*
X190663D01*
X191287Y191787D01*
X191600Y191475D01*
Y191163D02*
Y190537D01*
X192100Y147600D02*
X191787Y148225D01*
X191163Y148537D01*
X190537D01*
X189913Y148225D01*
X189600Y147600D01*
Y147287D01*
X189913Y146663D01*
X190537Y146350D01*
X191163D01*
X191787Y146663D01*
X192100Y147287D01*
Y148537D02*
Y146037D01*
X191787Y145413D01*
X191163Y145100D01*
X190225D01*
X189600Y145413D01*
X190600Y57600D02*
X193600D01*
X190600Y91100D02*
Y90100D01*
X192100D01*
Y91100D01*
X191100D01*
Y90600D01*
X191600D01*
X192100Y57600D02*
Y59600D01*
X202600Y142100D02*
Y99100D01*
Y187600D02*
Y144100D01*
X204600Y92600D02*
X207600Y95600D01*
Y92600D01*
X208100Y130725D02*
X207475Y131037D01*
X206537D01*
X205913Y130725D01*
X205600Y130100D01*
Y129475D01*
X205913Y128850D01*
X206537Y128537D01*
X207475D01*
X208100Y128850D01*
X205600Y177975D02*
X205913Y177350D01*
X206537Y177037D01*
X207163D01*
X207787Y177350D01*
X208100Y177975D01*
Y178600D01*
X207787Y179225D01*
X207163Y179537D01*
X206537D01*
X205913Y179225D01*
X205600Y178600D01*
Y177037D02*
Y180787D01*
X206600Y88100D02*
Y83100D01*
X211600Y88100D02*
X171600D01*
Y83100D01*
X176600D01*
Y88100D01*
X231100Y127850D02*
X230787Y127537D01*
X230163D01*
X229537D01*
X228913Y127850D01*
X228600Y128475D01*
Y129413D01*
X228913Y129725D01*
X229537Y130037D01*
X230163D01*
X230787Y129725D01*
X231100Y129413D01*
Y129100D01*
X230787Y128787D01*
X230163Y128475D01*
X229537D01*
X228913Y128787D01*
X228600Y129100D01*
X229100Y83100D02*
X264100D01*
Y188100D01*
X259100Y193100D01*
X249100D01*
Y198100D01*
X248100D01*
Y197600D01*
X249100Y196600D01*
X230850Y176537D02*
Y179663D01*
X231163Y179975D01*
X231475D01*
X231787Y179663D01*
X230225Y178725D02*
X231475D01*
X233100Y142100D02*
Y99100D01*
Y187600D02*
Y144100D01*
X234100Y98100D02*
X254100D01*
X234100Y143100D02*
X254100D01*
X234100Y188100D02*
X254100D01*
X239600Y197100D02*
X240600Y198100D01*
X239100D01*
Y193100D01*
X229100D01*
X224100Y188100D01*
Y88100D01*
X243100Y94600D02*
X242787Y95225D01*
X242163Y95537D01*
X241537D01*
X240913Y95225D01*
X240600Y94600D01*
Y93975D01*
X240913Y93350D01*
X241537Y93037D01*
X242163D01*
X242787Y93350D01*
X243100Y93975D01*
Y93037D02*
Y96787D01*
X240600Y198100D02*
X248100D01*
X241600Y192725D02*
X242225Y193037D01*
X243163D01*
X243787Y192725D01*
X244100Y192100D01*
Y191163D01*
X243787Y190850D01*
X243163Y190537D01*
X242537D01*
X241913Y190850D01*
X241600Y191163D01*
Y191475D01*
X241913Y191787D01*
X242537Y192100D01*
X243163D01*
X243787Y191787D01*
X244100Y191475D01*
Y191163D02*
Y190537D01*
X244600Y147600D02*
X244287Y148225D01*
X243663Y148537D01*
X243037D01*
X242413Y148225D01*
X242100Y147600D01*
Y147287D01*
X242413Y146663D01*
X243037Y146350D01*
X243663D01*
X244287Y146663D01*
X244600Y147287D01*
Y148537D02*
Y146037D01*
X244287Y145413D01*
X243663Y145100D01*
X242725D01*
X242100Y145413D01*
X243100Y57600D02*
X246100D01*
X243100Y91100D02*
Y90100D01*
X244600D01*
Y91100D01*
X243600D01*
Y90600D01*
X244100D01*
X244600Y57600D02*
Y59600D01*
X255100Y142100D02*
Y99100D01*
Y187600D02*
Y144100D01*
X257100Y92600D02*
X260100Y95600D01*
Y92600D01*
X260600Y130725D02*
X259975Y131037D01*
X259037D01*
X258413Y130725D01*
X258100Y130100D01*
Y129475D01*
X258413Y128850D01*
X259037Y128537D01*
X259975D01*
X260600Y128850D01*
X258100Y177975D02*
X258413Y177350D01*
X259037Y177037D01*
X259663D01*
X260287Y177350D01*
X260600Y177975D01*
Y178600D01*
X260287Y179225D01*
X259663Y179537D01*
X259037D01*
X258413Y179225D01*
X258100Y178600D01*
Y177037D02*
Y180787D01*
X259100Y88100D02*
Y83100D01*
X264100Y88100D02*
X224100D01*
Y83100D01*
X229100D01*
Y88100D01*
X283600Y127850D02*
X283287Y127537D01*
X282663D01*
X282037D01*
X281413Y127850D01*
X281100Y128475D01*
Y129413D01*
X281413Y129725D01*
X282037Y130037D01*
X282663D01*
X283287Y129725D01*
X283600Y129413D01*
Y129100D01*
X283287Y128787D01*
X282663Y128475D01*
X282037D01*
X281413Y128787D01*
X281100Y129100D01*
X281600Y83100D02*
X316600D01*
Y188100D01*
X311600Y193100D01*
X301600D01*
Y198100D01*
X300600D01*
Y197600D01*
X301600Y196600D01*
X283350Y176537D02*
Y179663D01*
X283663Y179975D01*
X283975D01*
X284287Y179663D01*
X282725Y178725D02*
X283975D01*
X285600Y142100D02*
Y99100D01*
Y187600D02*
Y144100D01*
X286600Y98100D02*
X306600D01*
X286600Y143100D02*
X306600D01*
X286600Y188100D02*
X306600D01*
X292100Y197100D02*
X293100Y198100D01*
X291600D01*
Y193100D01*
X281600D01*
X276600Y188100D01*
Y88100D01*
X295600Y94600D02*
X295287Y95225D01*
X294663Y95537D01*
X294037D01*
X293413Y95225D01*
X293100Y94600D01*
Y93975D01*
X293413Y93350D01*
X294037Y93037D01*
X294663D01*
X295287Y93350D01*
X295600Y93975D01*
Y93037D02*
Y96787D01*
X293100Y198100D02*
X300600D01*
X294100Y192725D02*
X294725Y193037D01*
X295663D01*
X296287Y192725D01*
X296600Y192100D01*
Y191163D01*
X296287Y190850D01*
X295663Y190537D01*
X295037D01*
X294413Y190850D01*
X294100Y191163D01*
Y191475D01*
X294413Y191787D01*
X295037Y192100D01*
X295663D01*
X296287Y191787D01*
X296600Y191475D01*
Y191163D02*
Y190537D01*
X297100Y147600D02*
X296787Y148225D01*
X296163Y148537D01*
X295537D01*
X294913Y148225D01*
X294600Y147600D01*
Y147287D01*
X294913Y146663D01*
X295537Y146350D01*
X296163D01*
X296787Y146663D01*
X297100Y147287D01*
Y148537D02*
Y146037D01*
X296787Y145413D01*
X296163Y145100D01*
X295225D01*
X294600Y145413D01*
X295600Y57600D02*
X298600D01*
X295600Y91100D02*
Y90100D01*
X297100D01*
Y91100D01*
X296100D01*
Y90600D01*
X296600D01*
X297100Y57600D02*
Y59600D01*
X307600Y142100D02*
Y99100D01*
Y187600D02*
Y144100D01*
X309600Y92600D02*
X312600Y95600D01*
Y92600D01*
X313100Y130725D02*
X312475Y131037D01*
X311537D01*
X310913Y130725D01*
X310600Y130100D01*
Y129475D01*
X310913Y128850D01*
X311537Y128537D01*
X312475D01*
X313100Y128850D01*
X310600Y177975D02*
X310913Y177350D01*
X311537Y177037D01*
X312163D01*
X312787Y177350D01*
X313100Y177975D01*
Y178600D01*
X312787Y179225D01*
X312163Y179537D01*
X311537D01*
X310913Y179225D01*
X310600Y178600D01*
Y177037D02*
Y180787D01*
X311600Y88100D02*
Y83100D01*
X316600Y88100D02*
X276600D01*
Y83100D01*
X281600D01*
Y88100D01*
D02*
D13*
X17840Y35600D02*
X32210D01*
X30600Y174256D02*
Y168744D01*
X32210Y40128D02*
X57013D01*
Y31072D01*
X32210D01*
Y40128D01*
X57013Y35600D02*
X71383D01*
D02*
D111*
X14100Y63100D02*
Y79100D01*
X33100Y98100D01*
X19100Y73100D02*
Y121100D01*
X34100Y136100D01*
Y143100D01*
X24100Y63600D02*
Y121100D01*
X23100Y122100D01*
X29100Y73100D02*
Y163600D01*
X23100Y169600D01*
X39100Y73100D02*
Y185100D01*
X42100Y188100D01*
X44100Y63100D02*
Y92100D01*
X47100D01*
X49100Y73100D02*
Y80100D01*
X51600D01*
Y101600D01*
X45100Y108600D01*
X54100Y63100D02*
Y80100D01*
X53100D01*
Y158600D01*
X45600Y166100D01*
X66600Y63100D02*
Y79100D01*
X85600Y98100D01*
X71600Y73100D02*
Y121100D01*
X86600Y136100D01*
Y143100D01*
X76600Y63600D02*
Y121100D01*
X75600Y122100D01*
X81600Y73100D02*
Y163600D01*
X75600Y169600D01*
X91600Y73100D02*
Y185100D01*
X94600Y188100D01*
X96600Y63100D02*
Y92100D01*
X99600D01*
X101600Y73100D02*
Y80100D01*
X104100D01*
Y101600D01*
X97600Y108600D01*
X106600Y63100D02*
Y80100D01*
X105600D01*
Y158600D01*
X98100Y166100D01*
X119100Y63100D02*
Y79100D01*
X138100Y98100D01*
X124100Y73100D02*
Y121100D01*
X139100Y136100D01*
Y143100D01*
X129100Y63600D02*
Y121100D01*
X128100Y122100D01*
X134100Y73100D02*
Y163600D01*
X128100Y169600D01*
X144100Y73100D02*
Y185100D01*
X147100Y188100D01*
X149100Y63100D02*
Y92100D01*
X152100D01*
X154100Y73100D02*
Y80100D01*
X156600D01*
Y101600D01*
X150100Y108600D01*
X159100Y63100D02*
Y80100D01*
X158100D01*
Y158600D01*
X150600Y166100D01*
X171600Y63100D02*
Y79100D01*
X190600Y98100D01*
X176600Y73100D02*
Y121100D01*
X191600Y136100D01*
Y143100D01*
X181600Y63600D02*
Y121100D01*
X180600Y122100D01*
X186600Y73100D02*
Y163600D01*
X180600Y169600D01*
X196600Y73100D02*
Y185100D01*
X199600Y188100D01*
X201600Y63100D02*
Y92100D01*
X204600D01*
X206600Y73100D02*
Y80100D01*
X209100D01*
Y101600D01*
X202600Y108600D01*
X211600Y63100D02*
Y80100D01*
X210600D01*
Y158600D01*
X203100Y166100D01*
X224100Y63100D02*
Y79100D01*
X243100Y98100D01*
X229100Y73100D02*
Y121100D01*
X244100Y136100D01*
Y143100D01*
X234100Y63600D02*
Y121100D01*
X233100Y122100D01*
X239100Y73100D02*
Y163600D01*
X233100Y169600D01*
X249100Y73100D02*
Y185100D01*
X252100Y188100D01*
X254100Y63100D02*
Y92100D01*
X257100D01*
X259100Y73100D02*
Y80100D01*
X261600D01*
Y101600D01*
X255100Y108600D01*
X264100Y63100D02*
Y80100D01*
X263100D01*
Y158600D01*
X255600Y166100D01*
X276600Y63100D02*
Y79100D01*
X295600Y98100D01*
X281600Y73100D02*
Y121100D01*
X296600Y136100D01*
Y143100D01*
X286600Y63600D02*
Y121100D01*
X285600Y122100D01*
X291600Y73100D02*
Y163600D01*
X285600Y169600D01*
X301600Y73100D02*
Y185100D01*
X304600Y188100D01*
X306600Y63100D02*
Y92100D01*
X309600D01*
X311600Y73100D02*
Y80100D01*
X314100D01*
Y101600D01*
X307600Y108600D01*
X316600Y63100D02*
Y80100D01*
X315600D01*
Y158600D01*
X308100Y166100D01*
D02*
D112*
X14100Y58100D02*
X13850Y58600D01*
X13350Y58850D01*
X12850D01*
X12350Y58600D01*
X12100Y58100D01*
Y57600D01*
X12350Y57100D01*
X12850Y56850D01*
X13350D01*
X13850Y57100D01*
X14100Y57600D01*
Y56850D02*
Y59850D01*
X19600Y69100D02*
X19350Y69600D01*
X18850Y69850D01*
X18350D01*
X17850Y69600D01*
X17600Y69100D01*
Y68850D01*
X17850Y68350D01*
X18350Y68100D01*
X18850D01*
X19350Y68350D01*
X19600Y68850D01*
Y69850D02*
Y67850D01*
X19350Y67350D01*
X18850Y67100D01*
X18100D01*
X17600Y67350D01*
X24100Y58100D02*
X23850Y57850D01*
X23350D01*
X22850D01*
X22350Y58100D01*
X22100Y58600D01*
Y59350D01*
X22350Y59600D01*
X22850Y59850D01*
X23350D01*
X23850Y59600D01*
X24100Y59350D01*
Y59100D01*
X23850Y58850D01*
X23350Y58600D01*
X22850D01*
X22350Y58850D01*
X22100Y59100D01*
X29100Y66850D02*
Y69350D01*
X29350Y69600D01*
X29600D01*
X29850Y69350D01*
X28600Y68600D02*
X29600D01*
X37600Y69600D02*
X38100Y69850D01*
X38850D01*
X39350Y69600D01*
X39600Y69100D01*
Y68350D01*
X39350Y68100D01*
X38850Y67850D01*
X38350D01*
X37850Y68100D01*
X37600Y68350D01*
Y68600D01*
X37850Y68850D01*
X38350Y69100D01*
X38850D01*
X39350Y68850D01*
X39600Y68600D01*
Y68350D02*
Y67850D01*
X49600Y69600D02*
X49100Y69850D01*
X48350D01*
X47850Y69600D01*
X47600Y69100D01*
Y68600D01*
X47850Y68100D01*
X48350Y67850D01*
X49100D01*
X49600Y68100D01*
X52600Y57600D02*
X52850Y57100D01*
X53350Y56850D01*
X53850D01*
X54350Y57100D01*
X54600Y57600D01*
Y58100D01*
X54350Y58600D01*
X53850Y58850D01*
X53350D01*
X52850Y58600D01*
X52600Y58100D01*
Y56850D02*
Y59850D01*
X66600Y58100D02*
X66350Y58600D01*
X65850Y58850D01*
X65350D01*
X64850Y58600D01*
X64600Y58100D01*
Y57600D01*
X64850Y57100D01*
X65350Y56850D01*
X65850D01*
X66350Y57100D01*
X66600Y57600D01*
Y56850D02*
Y59850D01*
X72100Y69100D02*
X71850Y69600D01*
X71350Y69850D01*
X70850D01*
X70350Y69600D01*
X70100Y69100D01*
Y68850D01*
X70350Y68350D01*
X70850Y68100D01*
X71350D01*
X71850Y68350D01*
X72100Y68850D01*
Y69850D02*
Y67850D01*
X71850Y67350D01*
X71350Y67100D01*
X70600D01*
X70100Y67350D01*
X76600Y58100D02*
X76350Y57850D01*
X75850D01*
X75350D01*
X74850Y58100D01*
X74600Y58600D01*
Y59350D01*
X74850Y59600D01*
X75350Y59850D01*
X75850D01*
X76350Y59600D01*
X76600Y59350D01*
Y59100D01*
X76350Y58850D01*
X75850Y58600D01*
X75350D01*
X74850Y58850D01*
X74600Y59100D01*
X81600Y66850D02*
Y69350D01*
X81850Y69600D01*
X82100D01*
X82350Y69350D01*
X81100Y68600D02*
X82100D01*
X90100Y69600D02*
X90600Y69850D01*
X91350D01*
X91850Y69600D01*
X92100Y69100D01*
Y68350D01*
X91850Y68100D01*
X91350Y67850D01*
X90850D01*
X90350Y68100D01*
X90100Y68350D01*
Y68600D01*
X90350Y68850D01*
X90850Y69100D01*
X91350D01*
X91850Y68850D01*
X92100Y68600D01*
Y68350D02*
Y67850D01*
X102100Y69600D02*
X101600Y69850D01*
X100850D01*
X100350Y69600D01*
X100100Y69100D01*
Y68600D01*
X100350Y68100D01*
X100850Y67850D01*
X101600D01*
X102100Y68100D01*
X105100Y57600D02*
X105350Y57100D01*
X105850Y56850D01*
X106350D01*
X106850Y57100D01*
X107100Y57600D01*
Y58100D01*
X106850Y58600D01*
X106350Y58850D01*
X105850D01*
X105350Y58600D01*
X105100Y58100D01*
Y56850D02*
Y59850D01*
X119100Y58100D02*
X118850Y58600D01*
X118350Y58850D01*
X117850D01*
X117350Y58600D01*
X117100Y58100D01*
Y57600D01*
X117350Y57100D01*
X117850Y56850D01*
X118350D01*
X118850Y57100D01*
X119100Y57600D01*
Y56850D02*
Y59850D01*
X124600Y69100D02*
X124350Y69600D01*
X123850Y69850D01*
X123350D01*
X122850Y69600D01*
X122600Y69100D01*
Y68850D01*
X122850Y68350D01*
X123350Y68100D01*
X123850D01*
X124350Y68350D01*
X124600Y68850D01*
Y69850D02*
Y67850D01*
X124350Y67350D01*
X123850Y67100D01*
X123100D01*
X122600Y67350D01*
X129100Y58100D02*
X128850Y57850D01*
X128350D01*
X127850D01*
X127350Y58100D01*
X127100Y58600D01*
Y59350D01*
X127350Y59600D01*
X127850Y59850D01*
X128350D01*
X128850Y59600D01*
X129100Y59350D01*
Y59100D01*
X128850Y58850D01*
X128350Y58600D01*
X127850D01*
X127350Y58850D01*
X127100Y59100D01*
X134100Y66850D02*
Y69350D01*
X134350Y69600D01*
X134600D01*
X134850Y69350D01*
X133600Y68600D02*
X134600D01*
X142600Y69600D02*
X143100Y69850D01*
X143850D01*
X144350Y69600D01*
X144600Y69100D01*
Y68350D01*
X144350Y68100D01*
X143850Y67850D01*
X143350D01*
X142850Y68100D01*
X142600Y68350D01*
Y68600D01*
X142850Y68850D01*
X143350Y69100D01*
X143850D01*
X144350Y68850D01*
X144600Y68600D01*
Y68350D02*
Y67850D01*
X154600Y69600D02*
X154100Y69850D01*
X153350D01*
X152850Y69600D01*
X152600Y69100D01*
Y68600D01*
X152850Y68100D01*
X153350Y67850D01*
X154100D01*
X154600Y68100D01*
X157600Y57600D02*
X157850Y57100D01*
X158350Y56850D01*
X158850D01*
X159350Y57100D01*
X159600Y57600D01*
Y58100D01*
X159350Y58600D01*
X158850Y58850D01*
X158350D01*
X157850Y58600D01*
X157600Y58100D01*
Y56850D02*
Y59850D01*
X171600Y58100D02*
X171350Y58600D01*
X170850Y58850D01*
X170350D01*
X169850Y58600D01*
X169600Y58100D01*
Y57600D01*
X169850Y57100D01*
X170350Y56850D01*
X170850D01*
X171350Y57100D01*
X171600Y57600D01*
Y56850D02*
Y59850D01*
X177100Y69100D02*
X176850Y69600D01*
X176350Y69850D01*
X175850D01*
X175350Y69600D01*
X175100Y69100D01*
Y68850D01*
X175350Y68350D01*
X175850Y68100D01*
X176350D01*
X176850Y68350D01*
X177100Y68850D01*
Y69850D02*
Y67850D01*
X176850Y67350D01*
X176350Y67100D01*
X175600D01*
X175100Y67350D01*
X181600Y58100D02*
X181350Y57850D01*
X180850D01*
X180350D01*
X179850Y58100D01*
X179600Y58600D01*
Y59350D01*
X179850Y59600D01*
X180350Y59850D01*
X180850D01*
X181350Y59600D01*
X181600Y59350D01*
Y59100D01*
X181350Y58850D01*
X180850Y58600D01*
X180350D01*
X179850Y58850D01*
X179600Y59100D01*
X186600Y66850D02*
Y69350D01*
X186850Y69600D01*
X187100D01*
X187350Y69350D01*
X186100Y68600D02*
X187100D01*
X195100Y69600D02*
X195600Y69850D01*
X196350D01*
X196850Y69600D01*
X197100Y69100D01*
Y68350D01*
X196850Y68100D01*
X196350Y67850D01*
X195850D01*
X195350Y68100D01*
X195100Y68350D01*
Y68600D01*
X195350Y68850D01*
X195850Y69100D01*
X196350D01*
X196850Y68850D01*
X197100Y68600D01*
Y68350D02*
Y67850D01*
X207100Y69600D02*
X206600Y69850D01*
X205850D01*
X205350Y69600D01*
X205100Y69100D01*
Y68600D01*
X205350Y68100D01*
X205850Y67850D01*
X206600D01*
X207100Y68100D01*
X210100Y57600D02*
X210350Y57100D01*
X210850Y56850D01*
X211350D01*
X211850Y57100D01*
X212100Y57600D01*
Y58100D01*
X211850Y58600D01*
X211350Y58850D01*
X210850D01*
X210350Y58600D01*
X210100Y58100D01*
Y56850D02*
Y59850D01*
X224100Y58100D02*
X223850Y58600D01*
X223350Y58850D01*
X222850D01*
X222350Y58600D01*
X222100Y58100D01*
Y57600D01*
X222350Y57100D01*
X222850Y56850D01*
X223350D01*
X223850Y57100D01*
X224100Y57600D01*
Y56850D02*
Y59850D01*
X229600Y69100D02*
X229350Y69600D01*
X228850Y69850D01*
X228350D01*
X227850Y69600D01*
X227600Y69100D01*
Y68850D01*
X227850Y68350D01*
X228350Y68100D01*
X228850D01*
X229350Y68350D01*
X229600Y68850D01*
Y69850D02*
Y67850D01*
X229350Y67350D01*
X228850Y67100D01*
X228100D01*
X227600Y67350D01*
X234100Y58100D02*
X233850Y57850D01*
X233350D01*
X232850D01*
X232350Y58100D01*
X232100Y58600D01*
Y59350D01*
X232350Y59600D01*
X232850Y59850D01*
X233350D01*
X233850Y59600D01*
X234100Y59350D01*
Y59100D01*
X233850Y58850D01*
X233350Y58600D01*
X232850D01*
X232350Y58850D01*
X232100Y59100D01*
X239100Y66850D02*
Y69350D01*
X239350Y69600D01*
X239600D01*
X239850Y69350D01*
X238600Y68600D02*
X239600D01*
X247600Y69600D02*
X248100Y69850D01*
X248850D01*
X249350Y69600D01*
X249600Y69100D01*
Y68350D01*
X249350Y68100D01*
X248850Y67850D01*
X248350D01*
X247850Y68100D01*
X247600Y68350D01*
Y68600D01*
X247850Y68850D01*
X248350Y69100D01*
X248850D01*
X249350Y68850D01*
X249600Y68600D01*
Y68350D02*
Y67850D01*
X259600Y69600D02*
X259100Y69850D01*
X258350D01*
X257850Y69600D01*
X257600Y69100D01*
Y68600D01*
X257850Y68100D01*
X258350Y67850D01*
X259100D01*
X259600Y68100D01*
X262600Y57600D02*
X262850Y57100D01*
X263350Y56850D01*
X263850D01*
X264350Y57100D01*
X264600Y57600D01*
Y58100D01*
X264350Y58600D01*
X263850Y58850D01*
X263350D01*
X262850Y58600D01*
X262600Y58100D01*
Y56850D02*
Y59850D01*
X276600Y58100D02*
X276350Y58600D01*
X275850Y58850D01*
X275350D01*
X274850Y58600D01*
X274600Y58100D01*
Y57600D01*
X274850Y57100D01*
X275350Y56850D01*
X275850D01*
X276350Y57100D01*
X276600Y57600D01*
Y56850D02*
Y59850D01*
X282100Y69100D02*
X281850Y69600D01*
X281350Y69850D01*
X280850D01*
X280350Y69600D01*
X280100Y69100D01*
Y68850D01*
X280350Y68350D01*
X280850Y68100D01*
X281350D01*
X281850Y68350D01*
X282100Y68850D01*
Y69850D02*
Y67850D01*
X281850Y67350D01*
X281350Y67100D01*
X280600D01*
X280100Y67350D01*
X286600Y58100D02*
X286350Y57850D01*
X285850D01*
X285350D01*
X284850Y58100D01*
X284600Y58600D01*
Y59350D01*
X284850Y59600D01*
X285350Y59850D01*
X285850D01*
X286350Y59600D01*
X286600Y59350D01*
Y59100D01*
X286350Y58850D01*
X285850Y58600D01*
X285350D01*
X284850Y58850D01*
X284600Y59100D01*
X291600Y66850D02*
Y69350D01*
X291850Y69600D01*
X292100D01*
X292350Y69350D01*
X291100Y68600D02*
X292100D01*
X300100Y69600D02*
X300600Y69850D01*
X301350D01*
X301850Y69600D01*
X302100Y69100D01*
Y68350D01*
X301850Y68100D01*
X301350Y67850D01*
X300850D01*
X300350Y68100D01*
X300100Y68350D01*
Y68600D01*
X300350Y68850D01*
X300850Y69100D01*
X301350D01*
X301850Y68850D01*
X302100Y68600D01*
Y68350D02*
Y67850D01*
X312100Y69600D02*
X311600Y69850D01*
X310850D01*
X310350Y69600D01*
X310100Y69100D01*
Y68600D01*
X310350Y68100D01*
X310850Y67850D01*
X311600D01*
X312100Y68100D01*
X315100Y57600D02*
X315350Y57100D01*
X315850Y56850D01*
X316350D01*
X316850Y57100D01*
X317100Y57600D01*
Y58100D01*
X316850Y58600D01*
X316350Y58850D01*
X315850D01*
X315350Y58600D01*
X315100Y58100D01*
Y56850D02*
Y59850D01*
D02*
D113*
X43600Y59100D02*
X43475Y59350D01*
X43225Y59475D01*
X42975D01*
X42725Y59350D01*
X42600Y59100D01*
Y58850D01*
X42725Y58600D01*
X42975Y58475D01*
X43225D01*
X43475Y58600D01*
X43600Y58850D01*
Y58475D02*
Y59975D01*
X44600Y59475D02*
Y58100D01*
Y58850D02*
X44725Y58600D01*
X44975Y58475D01*
X45225D01*
X45475Y58600D01*
X45600Y58850D01*
Y59100D01*
X45475Y59350D01*
X45225Y59475D01*
X44975D01*
X44725Y59350D01*
X44600Y59100D01*
Y58850D01*
X96100Y59100D02*
X95975Y59350D01*
X95725Y59475D01*
X95475D01*
X95225Y59350D01*
X95100Y59100D01*
Y58850D01*
X95225Y58600D01*
X95475Y58475D01*
X95725D01*
X95975Y58600D01*
X96100Y58850D01*
Y58475D02*
Y59975D01*
X97100Y59475D02*
Y58100D01*
Y58850D02*
X97225Y58600D01*
X97475Y58475D01*
X97725D01*
X97975Y58600D01*
X98100Y58850D01*
Y59100D01*
X97975Y59350D01*
X97725Y59475D01*
X97475D01*
X97225Y59350D01*
X97100Y59100D01*
Y58850D01*
X148600Y59100D02*
X148475Y59350D01*
X148225Y59475D01*
X147975D01*
X147725Y59350D01*
X147600Y59100D01*
Y58850D01*
X147725Y58600D01*
X147975Y58475D01*
X148225D01*
X148475Y58600D01*
X148600Y58850D01*
Y58475D02*
Y59975D01*
X149600Y59475D02*
Y58100D01*
Y58850D02*
X149725Y58600D01*
X149975Y58475D01*
X150225D01*
X150475Y58600D01*
X150600Y58850D01*
Y59100D01*
X150475Y59350D01*
X150225Y59475D01*
X149975D01*
X149725Y59350D01*
X149600Y59100D01*
Y58850D01*
X201100Y59100D02*
X200975Y59350D01*
X200725Y59475D01*
X200475D01*
X200225Y59350D01*
X200100Y59100D01*
Y58850D01*
X200225Y58600D01*
X200475Y58475D01*
X200725D01*
X200975Y58600D01*
X201100Y58850D01*
Y58475D02*
Y59975D01*
X202100Y59475D02*
Y58100D01*
Y58850D02*
X202225Y58600D01*
X202475Y58475D01*
X202725D01*
X202975Y58600D01*
X203100Y58850D01*
Y59100D01*
X202975Y59350D01*
X202725Y59475D01*
X202475D01*
X202225Y59350D01*
X202100Y59100D01*
Y58850D01*
X253600Y59100D02*
X253475Y59350D01*
X253225Y59475D01*
X252975D01*
X252725Y59350D01*
X252600Y59100D01*
Y58850D01*
X252725Y58600D01*
X252975Y58475D01*
X253225D01*
X253475Y58600D01*
X253600Y58850D01*
Y58475D02*
Y59975D01*
X254600Y59475D02*
Y58100D01*
Y58850D02*
X254725Y58600D01*
X254975Y58475D01*
X255225D01*
X255475Y58600D01*
X255600Y58850D01*
Y59100D01*
X255475Y59350D01*
X255225Y59475D01*
X254975D01*
X254725Y59350D01*
X254600Y59100D01*
Y58850D01*
X306100Y59100D02*
X305975Y59350D01*
X305725Y59475D01*
X305475D01*
X305225Y59350D01*
X305100Y59100D01*
Y58850D01*
X305225Y58600D01*
X305475Y58475D01*
X305725D01*
X305975Y58600D01*
X306100Y58850D01*
Y58475D02*
Y59975D01*
X307100Y59475D02*
Y58100D01*
Y58850D02*
X307225Y58600D01*
X307475Y58475D01*
X307725D01*
X307975Y58600D01*
X308100Y58850D01*
Y59100D01*
X307975Y59350D01*
X307725Y59475D01*
X307475D01*
X307225Y59350D01*
X307100Y59100D01*
Y58850D01*
X0Y0D02*
M02*
