G04 DesignSpark PCB Gerber Version 10.0 Build 5299*
%FSLAX35Y35*%
%MOIN*%
%ADD11C,0.00197*%
%ADD10C,0.00500*%
%ADD13C,0.00787*%
%ADD117C,0.01102*%
X0Y0D02*
D02*
D10*
X33163Y137163D02*
Y135913D01*
Y136537D02*
X29413D01*
Y137163D02*
Y135913D01*
X32537Y129975D02*
X32850Y130287D01*
X33163Y130913D01*
Y131850D01*
X32850Y132475D01*
X32537Y132787D01*
X31913Y133100D01*
X30663D01*
X30037Y132787D01*
X29725Y132475D01*
X29413Y131850D01*
Y130913D01*
X29725Y130287D01*
X30037Y129975D01*
X33163Y127475D02*
Y126225D01*
Y126850D02*
X29413D01*
X30037Y127475D01*
X86525Y166337D02*
X86213Y166650D01*
X85587Y166963D01*
X84650D01*
X84025Y166650D01*
X83713Y166337D01*
X83400Y165713D01*
Y164463D01*
X83713Y163837D01*
X84025Y163525D01*
X84650Y163213D01*
X85587D01*
X86213Y163525D01*
X86525Y163837D01*
X88400Y166650D02*
X89025Y166963D01*
X89963D01*
X90587Y166650D01*
X90900Y166025D01*
Y165713D01*
X90587Y165087D01*
X89963Y164775D01*
X88400D01*
Y163213D01*
X90900D01*
X85663Y137163D02*
Y135913D01*
Y136537D02*
X81913D01*
Y137163D02*
Y135913D01*
X85037Y129975D02*
X85350Y130287D01*
X85663Y130913D01*
Y131850D01*
X85350Y132475D01*
X85037Y132787D01*
X84413Y133100D01*
X83163D01*
X82537Y132787D01*
X82225Y132475D01*
X81913Y131850D01*
Y130913D01*
X82225Y130287D01*
X82537Y129975D01*
X85663Y125600D02*
Y128100D01*
X83475Y125913D01*
X82850Y125600D01*
X82225Y125913D01*
X81913Y126537D01*
Y127475D01*
X82225Y128100D01*
X104922Y195739D02*
X107734D01*
X108359Y195427D01*
X108672Y194802D01*
Y193552D01*
X108359Y192927D01*
X107734Y192614D01*
X104922D01*
X108672Y190114D02*
Y188864D01*
Y189489D02*
X104922D01*
X105546Y190114D01*
X137725Y165137D02*
X137413Y165450D01*
X136787Y165763D01*
X135850D01*
X135225Y165450D01*
X134913Y165137D01*
X134600Y164513D01*
Y163263D01*
X134913Y162637D01*
X135225Y162325D01*
X135850Y162013D01*
X136787D01*
X137413Y162325D01*
X137725Y162637D01*
X141163Y165763D02*
Y162013D01*
X139600Y164513D01*
X142100D01*
X138163Y137163D02*
Y135913D01*
Y136537D02*
X134413D01*
Y137163D02*
Y135913D01*
X137537Y129975D02*
X137850Y130287D01*
X138163Y130913D01*
Y131850D01*
X137850Y132475D01*
X137537Y132787D01*
X136913Y133100D01*
X135663D01*
X135037Y132787D01*
X134725Y132475D01*
X134413Y131850D01*
Y130913D01*
X134725Y130287D01*
X135037Y129975D01*
X137850Y127787D02*
X138163Y127163D01*
Y126537D01*
X137850Y125913D01*
X137225Y125600D01*
X136600Y125913D01*
X136287Y126537D01*
Y127163D01*
Y126537D02*
X135975Y125913D01*
X135350Y125600D01*
X134725Y125913D01*
X134413Y126537D01*
Y127163D01*
X134725Y127787D01*
X192125Y166337D02*
X191813Y166650D01*
X191187Y166963D01*
X190250D01*
X189625Y166650D01*
X189313Y166337D01*
X189000Y165713D01*
Y164463D01*
X189313Y163837D01*
X189625Y163525D01*
X190250Y163213D01*
X191187D01*
X191813Y163525D01*
X192125Y163837D01*
X194313Y166650D02*
X194937Y166963D01*
X195563D01*
X196187Y166650D01*
X196500Y166025D01*
X196187Y165400D01*
X195563Y165087D01*
X194937D01*
X195563D02*
X196187Y164775D01*
X196500Y164150D01*
X196187Y163525D01*
X195563Y163213D01*
X194937D01*
X194313Y163525D01*
X190663Y137163D02*
Y135913D01*
Y136537D02*
X186913D01*
Y137163D02*
Y135913D01*
X190037Y129975D02*
X190350Y130287D01*
X190663Y130913D01*
Y131850D01*
X190350Y132475D01*
X190037Y132787D01*
X189413Y133100D01*
X188163D01*
X187537Y132787D01*
X187225Y132475D01*
X186913Y131850D01*
Y130913D01*
X187225Y130287D01*
X187537Y129975D01*
X190663Y126537D02*
X186913D01*
X189413Y128100D01*
Y125600D01*
X244925Y166337D02*
X244613Y166650D01*
X243987Y166963D01*
X243050D01*
X242425Y166650D01*
X242113Y166337D01*
X241800Y165713D01*
Y164463D01*
X242113Y163837D01*
X242425Y163525D01*
X243050Y163213D01*
X243987D01*
X244613Y163525D01*
X244925Y163837D01*
X249300Y166963D02*
X246800D01*
X248987Y164775D01*
X249300Y164150D01*
X248987Y163525D01*
X248363Y163213D01*
X247425D01*
X246800Y163525D01*
X243163Y137163D02*
Y135913D01*
Y136537D02*
X239413D01*
Y137163D02*
Y135913D01*
X242537Y129975D02*
X242850Y130287D01*
X243163Y130913D01*
Y131850D01*
X242850Y132475D01*
X242537Y132787D01*
X241913Y133100D01*
X240663D01*
X240037Y132787D01*
X239725Y132475D01*
X239413Y131850D01*
Y130913D01*
X239725Y130287D01*
X240037Y129975D01*
X242850Y128100D02*
X243163Y127475D01*
Y126537D01*
X242850Y125913D01*
X242225Y125600D01*
X241913D01*
X241287Y125913D01*
X240975Y126537D01*
Y128100D01*
X239413D01*
Y125600D01*
X296525Y165137D02*
X296213Y165450D01*
X295587Y165763D01*
X294650D01*
X294025Y165450D01*
X293713Y165137D01*
X293400Y164513D01*
Y163263D01*
X293713Y162637D01*
X294025Y162325D01*
X294650Y162013D01*
X295587D01*
X296213Y162325D01*
X296525Y162637D01*
X299025Y165763D02*
X300275D01*
X299650D02*
Y162013D01*
X299025Y162637D01*
X295663Y137163D02*
Y135913D01*
Y136537D02*
X291913D01*
Y137163D02*
Y135913D01*
X295037Y129975D02*
X295350Y130287D01*
X295663Y130913D01*
Y131850D01*
X295350Y132475D01*
X295037Y132787D01*
X294413Y133100D01*
X293163D01*
X292537Y132787D01*
X292225Y132475D01*
X291913Y131850D01*
Y130913D01*
X292225Y130287D01*
X292537Y129975D01*
X294725Y128100D02*
X294100Y127787D01*
X293787Y127163D01*
Y126537D01*
X294100Y125913D01*
X294725Y125600D01*
X295350Y125913D01*
X295663Y126537D01*
Y127163D01*
X295350Y127787D01*
X294725Y128100D01*
X293787D01*
X292850Y127787D01*
X292225Y127163D01*
X291913Y126537D01*
X326383Y195521D02*
X112210D01*
Y85679D01*
X326383D01*
Y195521D01*
D02*
D11*
X111226Y196506D02*
Y84694D01*
X327368D01*
Y196506D01*
X111226D01*
D02*
D13*
X8903Y151486D02*
Y124714D01*
X59297D01*
Y151486D01*
X8903D01*
X8943Y160541D02*
Y152864D01*
X61403Y151486D02*
Y124714D01*
X111797D01*
Y151486D01*
X61403D01*
X61443Y160541D02*
Y152864D01*
X83400Y165144D02*
Y170656D01*
X113903Y151486D02*
Y124714D01*
X164297D01*
Y151486D01*
X113903D01*
X113943Y160541D02*
Y152864D01*
X134600Y163944D02*
Y169456D01*
X166403Y151486D02*
Y124714D01*
X216797D01*
Y151486D01*
X166403D01*
X166443Y160541D02*
Y152864D01*
X189000Y165144D02*
Y170656D01*
X218903Y151486D02*
Y124714D01*
X269297D01*
Y151486D01*
X218903D01*
X218943Y160541D02*
Y152864D01*
X241800Y165144D02*
Y170656D01*
X271403Y151486D02*
Y124714D01*
X321797D01*
Y151486D01*
X271403D01*
X271443Y160541D02*
Y152864D01*
X293400Y163944D02*
Y169456D01*
D02*
D117*
X140754Y197529D02*
G75*
G02*
Y198631I0J551D01*
G01*
G75*
G02*
Y197529I0J-551D01*
G01*
X0Y0D02*
M02*
