G05
M48
INCH,TZ
FMAT,2
T1C000.02400
T2C000.03150
T3C000.03500
T4C000.04094
T5C000.12000
%
T001
X0.09000Y1.71500
X0.14100Y1.41500
X0.16600Y1.65500
X0.17400Y0.99500
X0.17400Y1.47500
X0.19100Y0.88100
X0.23400Y0.93100
X0.26600Y1.08100
X0.28200Y0.83100
X0.31600Y0.88100
X0.31600Y1.10600
X0.31600Y1.36700
X0.31600Y1.48100
X0.36600Y1.07900
X0.36600Y1.33100
X0.36600Y1.45600
X0.39100Y0.99500
X0.40200Y1.28300
X0.41600Y1.10600
X0.42600Y0.93100
X0.44100Y0.83100
X0.46200Y1.47500
X0.49100Y1.33100
X0.52200Y1.64300
X0.54100Y1.36700
X0.61800Y1.07900
X0.61800Y1.31900
X0.66600Y1.37900
X0.70200Y0.99500
X0.70200Y1.45100
X0.71600Y0.87500
X0.74100Y1.10300
X0.75000Y0.93500
X0.79800Y0.81500
X0.79800Y1.06700
X0.83400Y0.87500
X0.83400Y1.40300
X0.83400Y1.47500
X0.84600Y1.11500
X0.88200Y1.06700
X0.88200Y1.35500
X0.89400Y1.47500
X0.91600Y0.99500
X0.94200Y1.10300
X0.95400Y0.92300
X0.96600Y0.81500
X1.01600Y1.35500
X1.02600Y0.28700
X1.03800Y1.65500
X1.06200Y1.48700
X1.06600Y1.40300
X1.11000Y1.06700
X1.11000Y1.31900
X1.15800Y0.69500
X1.19100Y1.42700
X1.24100Y0.85100
X1.26600Y1.10300
X1.29000Y1.47500
X1.29100Y0.97100
X1.31400Y1.06700
X1.32600Y0.80300
X1.36200Y0.85100
X1.36200Y1.10300
X1.37400Y1.37900
X1.37400Y1.49900
X1.42200Y1.11500
X1.42200Y1.34300
X1.42200Y1.47500
X1.48200Y0.99500
X1.48200Y1.11500
X1.49100Y0.80300
X1.56600Y1.33100
X1.56600Y1.48700
X1.56600Y1.65500
X1.60200Y1.01900
X1.60600Y1.37900
X1.65000Y1.10300
X1.65000Y1.31900
X1.66200Y0.69500
X1.66200Y0.80300
X1.66200Y1.01900
X1.73400Y1.42700
X1.75800Y1.01900
X1.76600Y0.81500
X1.79100Y1.11500
X1.83000Y0.97100
X1.83000Y1.47500
X1.84200Y1.11500
X1.86600Y0.82700
X1.89000Y1.37900
X1.89000Y1.47500
X1.90200Y1.10300
X1.95000Y1.34300
X1.95000Y1.47500
X1.96200Y1.10300
X1.99800Y0.81500
X1.99800Y1.01900
X2.02200Y1.10300
X2.06600Y1.34300
X2.07000Y1.47500
X2.09400Y1.65500
X2.10600Y0.99500
X2.10600Y1.37900
X2.11600Y0.81500
X2.15400Y1.09100
X2.15400Y1.31900
X2.19000Y0.77900
X2.21400Y1.42700
X2.22600Y1.00700
X2.26200Y1.06700
X2.26200Y1.37900
X2.31600Y1.12700
X2.34100Y0.76700
X2.35100Y1.47100
X2.35800Y1.37900
X2.37000Y1.01900
X2.37000Y1.11500
X2.40600Y1.48700
X2.41800Y1.36700
X2.46600Y1.47500
X2.51400Y0.98300
X2.51400Y1.12700
X2.52600Y1.40300
X2.58600Y0.22700
X2.58600Y0.35900
X2.58600Y0.51500
X2.61000Y1.03100
X2.62200Y1.65500
X2.63400Y1.36700
X2.65800Y1.09100
X2.65800Y1.31900
X2.67000Y0.98300
X2.70600Y1.43900
X2.73000Y0.99500
X2.76600Y1.07900
X2.81400Y0.99500
X2.85000Y1.11500
X2.86600Y1.04300
X2.87400Y1.47500
X2.93400Y1.36700
X2.93400Y1.48700
X2.99400Y1.07900
X2.99400Y1.40300
X2.99400Y1.48700
X3.06600Y0.99500
X3.13800Y1.47500
X3.14100Y1.65500
X3.16200Y1.40300
X3.24600Y1.36700
T002
X0.14100Y0.35600
X0.75124Y0.35600
T003
X0.14100Y0.63100
X0.19100Y0.73100
X0.24100Y0.63100
X0.29100Y0.73100
X0.34100Y0.63100
X0.39100Y0.73100
X0.44100Y0.63100
X0.49100Y0.73100
X0.49100Y1.71500
X0.54100Y0.63100
X0.57000Y1.81100
X0.66600Y0.63100
X0.69100Y1.71500
X0.71600Y0.73100
X0.76600Y0.63100
X0.81600Y0.73100
X0.86600Y0.63100
X0.91600Y0.73100
X0.94100Y0.10600
X0.94100Y0.20600
X0.94100Y0.30600
X0.94100Y0.40600
X0.96600Y0.63100
X0.99100Y1.71500
X1.01600Y0.73100
X1.06600Y0.63100
X1.19100Y0.63100
X1.21600Y1.71500
X1.24100Y0.73100
X1.29100Y0.63100
X1.34100Y0.73100
X1.39100Y0.63100
X1.44100Y0.73100
X1.49100Y0.63100
X1.51600Y1.71500
X1.54100Y0.73100
X1.59100Y0.63100
X1.71600Y0.63100
X1.74100Y1.71500
X1.76600Y0.73100
X1.81600Y0.63100
X1.86600Y0.73100
X1.91600Y0.63100
X1.96600Y0.73100
X2.01600Y0.63100
X2.04100Y1.71500
X2.06600Y0.73100
X2.11600Y0.63100
X2.24100Y0.63100
X2.26600Y1.71500
X2.29100Y0.73100
X2.34100Y0.63100
X2.39100Y0.73100
X2.44100Y0.63100
X2.49100Y0.73100
X2.54100Y0.63100
X2.56600Y1.71500
X2.59100Y0.73100
X2.64100Y0.63100
X2.76600Y0.63100
X2.79100Y1.71500
X2.81600Y0.73100
X2.86600Y0.63100
X2.91600Y0.73100
X2.96600Y0.63100
X3.01600Y0.73100
X3.06600Y0.63100
X3.06600Y1.71500
X3.11600Y0.73100
X3.16600Y0.63100
T004
X1.41305Y0.90600
X1.41305Y1.90600
X1.51305Y0.90600
X1.51305Y1.90600
X1.61305Y0.90600
X1.61305Y1.90600
X1.71305Y0.90600
X1.71305Y1.90600
X1.81305Y0.90600
X1.81305Y1.90600
X1.91305Y0.90600
X1.91305Y1.90600
X2.01305Y0.90600
X2.01305Y1.90600
X2.11305Y0.90600
X2.11305Y1.90600
X2.21305Y0.90600
X2.21305Y1.90600
X2.31305Y0.90600
X2.31305Y1.90600
X2.41305Y0.90600
X2.41305Y1.90600
X2.51305Y0.90600
X2.51305Y1.90600
X2.61305Y0.90600
X2.61305Y1.90600
X2.71305Y0.90600
X2.71305Y1.90600
X2.81305Y0.90600
X2.81305Y1.90600
X2.91305Y0.90600
X2.91305Y1.90600
X3.01305Y0.90600
X3.01305Y1.90600
X3.11305Y0.90600
X3.11305Y1.90600
X3.21305Y0.90600
X3.21305Y1.90600
T005
X0.12600Y0.13100
X0.12600Y2.02700
X3.30600Y0.13100
X3.30600Y2.02700
M30
