G04 DesignSpark PCB Gerber Version 10.0 Build 5299*
%FSLAX35Y35*%
%MOIN*%
%ADD114R,0.02559X0.07677*%
%ADD104R,0.04055X0.07362*%
%ADD101R,0.06142X0.06142*%
%ADD12C,0.01000*%
%ADD97C,0.02000*%
%ADD14C,0.04000*%
%ADD21C,0.04724*%
%ADD98C,0.05000*%
%ADD103C,0.06000*%
%ADD102C,0.06142*%
%ADD99C,0.08000*%
%ADD100C,0.14000*%
X0Y0D02*
D02*
D12*
X9000Y171500D02*
X19800D01*
X21000Y170300D01*
Y157302D01*
X21600Y156702D01*
X14100Y141500D02*
X41400D01*
Y156502D01*
X41600Y156702D01*
X17400Y147500D02*
X25800D01*
Y155902D01*
X26600Y156702D01*
X19100Y88100D02*
X31600D01*
X23400Y93100D02*
X42600D01*
X26600Y108100D02*
Y119498D01*
X31600Y110600D02*
Y119498D01*
Y148100D02*
Y156702D01*
X36600Y107900D02*
Y119498D01*
Y145600D02*
Y156702D01*
X39100Y99500D02*
X17400D01*
X40200Y128300D02*
X23400D01*
X22200Y127100D01*
Y120098D01*
X21600Y119498D01*
X41600Y110600D02*
Y119498D01*
X44100Y83100D02*
X28200D01*
X49100Y133100D02*
X36600D01*
X51600Y119498D02*
X51000Y118898D01*
Y112700D01*
X55800Y107900D01*
X61800D01*
X52200Y164300D02*
Y157302D01*
X51600Y156702D01*
X54100Y136700D02*
X31600D01*
X67800Y27500D02*
X7800D01*
X4200Y31100D01*
Y177500D01*
X7800Y181100D01*
X25800D01*
X35400Y171500D01*
X49100D01*
X70200Y145100D02*
X78600D01*
Y156202D01*
X79100Y156702D01*
X71600Y87500D02*
X83400D01*
X74100Y119498D02*
Y110300D01*
Y156702D02*
Y151400D01*
X72600Y149900D01*
X48600D01*
X46200Y147500D01*
X75000Y93500D02*
X85800D01*
Y92300D01*
X95400D01*
X75124Y35600D02*
Y34824D01*
X67800Y27500D01*
X79800Y106700D02*
Y118798D01*
X79100Y119498D01*
X83400Y147500D02*
Y156002D01*
X84100Y156702D01*
X84600Y111500D02*
Y118998D01*
X84100Y119498D01*
X88200Y106700D02*
Y118598D01*
X89100Y119498D01*
X89400Y147500D02*
Y156402D01*
X89100Y156702D01*
X91600Y99500D02*
X70200D01*
X94100Y20600D02*
X74700D01*
X67800Y27500D01*
X94100Y156702D02*
X94200Y156602D01*
Y143900D01*
X81000D01*
X79800Y142700D01*
X76200D01*
X71400Y137900D01*
X66600D01*
X94200Y110300D02*
Y119398D01*
X94100Y119498D01*
X96600Y81500D02*
X79800D01*
X99100Y119498D02*
Y127100D01*
X46200D01*
Y119898D01*
X46600Y119498D01*
X101600Y135500D02*
X88200D01*
X102600Y28700D02*
Y32100D01*
X94100Y40600D01*
X103800Y165500D02*
Y157002D01*
X104100Y156702D01*
Y119498D02*
Y111200D01*
X108600Y106700D01*
X111000D01*
X106200Y148700D02*
X123000D01*
X125400Y151100D01*
Y155502D01*
X126600Y156702D01*
X106600Y140300D02*
X83400D01*
X111000Y131900D02*
X61800D01*
X119100Y142700D02*
X147000D01*
Y156302D01*
X146600Y156702D01*
X124100Y85100D02*
X136200D01*
X126600Y119498D02*
Y110300D01*
X129000Y147500D02*
X131400Y149900D01*
Y156502D01*
X131600Y156702D01*
X129100Y97100D02*
X145800D01*
X148200Y99500D01*
X131400Y106700D02*
Y119298D01*
X131600Y119498D01*
X136200Y110300D02*
Y119098D01*
X136600Y119498D01*
X137400Y149900D02*
Y155902D01*
X136600Y156702D01*
X142200Y111500D02*
Y118898D01*
X141600Y119498D01*
X142200Y147500D02*
Y156102D01*
X141600Y156702D01*
X144100Y73100D02*
Y72600D01*
X139800Y68300D01*
X117000D01*
X115800Y69500D01*
X148200Y111500D02*
Y117898D01*
X146600Y119498D01*
X149100Y80300D02*
X132600D01*
X151600Y119498D02*
Y127100D01*
X99100D01*
X156600Y119498D02*
Y111500D01*
X160200Y107900D01*
X162600D01*
X165000Y110300D01*
X156600Y133100D02*
X149400D01*
Y134300D01*
X142200D01*
X156600Y148700D02*
X175800D01*
X178200Y151100D01*
Y155802D01*
X179100Y156702D01*
X156600Y165500D02*
Y156702D01*
X159100Y63100D02*
Y82600D01*
X156600Y85100D01*
Y98300D01*
X160200Y101900D01*
X160600Y137900D02*
X137400D01*
X165000Y131900D02*
X164400D01*
X162100Y129600D01*
X126600D01*
X124100Y132100D01*
X111200D01*
X111000Y131900D01*
X166200Y80300D02*
Y101900D01*
X173400Y142700D02*
X198600D01*
Y156202D01*
X199100Y156702D01*
X175800Y101900D02*
X199800D01*
X176600Y81500D02*
X186600D01*
Y82700D01*
X179100Y119498D02*
Y111500D01*
X183000Y147500D02*
X184200Y148700D01*
Y156602D01*
X184100Y156702D01*
X184200Y111500D02*
Y119398D01*
X184100Y119498D01*
X189000Y147500D02*
Y156602D01*
X189100Y156702D01*
X190200Y110300D02*
Y118398D01*
X189100Y119498D01*
X195000Y147500D02*
Y155802D01*
X194100Y156702D01*
X196200Y110300D02*
Y117398D01*
X194100Y119498D01*
X196600Y73100D02*
X196200D01*
X191400Y68300D01*
X167400D01*
X166200Y69500D01*
X199800Y81500D02*
X197400D01*
X196200Y82700D01*
Y95900D01*
X195000Y97100D01*
X183000D01*
X202200Y110300D02*
Y111500D01*
X199800Y113900D01*
Y118798D01*
X199100Y119498D01*
X204100D02*
Y127100D01*
X151600D01*
X206600Y134300D02*
X195000D01*
X207000Y147500D02*
X227400D01*
X231000Y151100D01*
Y156102D01*
X231600Y156702D01*
X209100Y119498D02*
Y115400D01*
X215400Y109100D01*
X209400Y165500D02*
Y157002D01*
X209100Y156702D01*
X210600Y137900D02*
X189000D01*
X211600Y81500D02*
X209000D01*
X206600Y83900D01*
Y95900D01*
X210200Y99500D01*
X210600D01*
X215400Y131900D02*
X214400D01*
X212600Y130100D01*
X180100D01*
X178100Y132100D01*
X165200D01*
X165000Y131900D01*
X221400Y142700D02*
X249000D01*
X251400Y145100D01*
Y156502D01*
X251600Y156702D01*
X226200Y137900D02*
X235800D01*
X231305Y90600D02*
Y90205D01*
X219000Y77900D01*
X231600Y119498D02*
Y112700D01*
X234100Y76700D02*
Y79800D01*
X235800Y81500D01*
Y95900D01*
X237000Y97100D01*
X250200D01*
X251400Y98300D01*
X235100Y147100D02*
Y155202D01*
X236600Y156702D01*
X237000Y111500D02*
Y119098D01*
X236600Y119498D01*
X240600Y148700D02*
Y155702D01*
X241600Y156702D01*
Y119498D02*
X241800Y119298D01*
Y106700D01*
X226200D01*
X241800Y136700D02*
X244200Y134300D01*
X255000D01*
X257400Y136700D01*
X263400D01*
X246600Y119498D02*
Y101900D01*
X237000D01*
X246600Y147500D02*
Y156702D01*
X249100Y73100D02*
Y72000D01*
X245400Y68300D01*
X214200D01*
Y79100D01*
X216600Y81500D01*
Y94700D01*
X222600Y100700D01*
X251305Y90600D02*
Y83995D01*
X253800Y81500D01*
Y70700D01*
X256200Y68300D01*
X257400D01*
X258600Y67100D01*
Y51500D01*
X251400Y112700D02*
Y119298D01*
X251600Y119498D01*
X252600Y140300D02*
X261000Y148700D01*
X257400Y127100D02*
X204100D01*
X257400D02*
X256200Y125900D01*
Y119898D01*
X256600Y119498D01*
X258600Y35900D02*
Y22700D01*
X261000Y148700D02*
X282600D01*
X283800Y149900D01*
Y156402D01*
X284100Y156702D01*
X261600Y119498D02*
Y113300D01*
X265800Y109100D01*
X262200Y165500D02*
Y157302D01*
X261600Y156702D01*
X264100Y63100D02*
Y78400D01*
X256200Y86300D01*
Y98300D01*
X261000Y103100D01*
X265800Y131900D02*
X215400D01*
X270600Y143900D02*
X301800D01*
X304200Y146300D01*
Y156602D01*
X304100Y156702D01*
X276600Y63100D02*
X266600Y73100D01*
Y98300D01*
X267000D01*
X276600Y107900D02*
X294600D01*
Y118998D01*
X294100Y119498D01*
X281305Y90600D02*
Y92205D01*
X285000Y95900D01*
X310200D01*
X311400Y97100D01*
Y103100D01*
X309000Y105500D01*
Y119398D01*
X309100Y119498D01*
X285000Y111500D02*
X287400D01*
X289800Y113900D01*
Y118798D01*
X289100Y119498D01*
X286600Y104300D02*
X301800D01*
X304200Y106700D01*
Y119398D01*
X304100Y119498D01*
X287400Y147500D02*
X288600Y148700D01*
Y156202D01*
X289100Y156702D01*
X291305Y90600D02*
Y84795D01*
X293400Y82700D01*
X315000D01*
X316200Y83900D01*
Y109100D01*
X313800Y111500D01*
Y119198D01*
X314100Y119498D01*
X293400Y148700D02*
Y156002D01*
X294100Y156702D01*
X299400Y107900D02*
Y119198D01*
X299100Y119498D01*
X299400Y148700D02*
Y156402D01*
X299100Y156702D01*
X301600Y73100D02*
Y71700D01*
X298200Y68300D01*
X277800D01*
X274200Y71900D01*
Y83900D01*
X276600Y86300D01*
Y95900D01*
X273000Y99500D01*
X306600D02*
X281400D01*
X309100Y119498D02*
Y127100D01*
X257400D01*
X313800Y147500D02*
Y156402D01*
X314100Y156702D01*
Y119498D02*
Y130400D01*
X312600Y131900D01*
X265800D01*
X314100Y156702D02*
Y165500D01*
X316200Y140300D02*
X299400D01*
X324600Y136700D02*
X293400D01*
D02*
D14*
X9000Y171500D03*
X14100Y141500D03*
X16600Y165500D03*
X17400Y99500D03*
Y147500D03*
X19100Y88100D03*
X23400Y93100D03*
X26600Y108100D03*
X28200Y83100D03*
X31600Y88100D03*
Y110600D03*
Y136700D03*
Y148100D03*
X36600Y107900D03*
Y133100D03*
Y145600D03*
X39100Y99500D03*
X40200Y128300D03*
X41600Y110600D03*
X42600Y93100D03*
X44100Y83100D03*
X46200Y147500D03*
X49100Y133100D03*
X52200Y164300D03*
X54100Y136700D03*
X61800Y107900D03*
Y131900D03*
X66600Y137900D03*
X70200Y99500D03*
Y145100D03*
X71600Y87500D03*
X74100Y110300D03*
X75000Y93500D03*
X79800Y81500D03*
Y106700D03*
X83400Y87500D03*
Y140300D03*
Y147500D03*
X84600Y111500D03*
X88200Y106700D03*
Y135500D03*
X89400Y147500D03*
X91600Y99500D03*
X94200Y110300D03*
X95400Y92300D03*
X96600Y81500D03*
X101600Y135500D03*
X102600Y28700D03*
X103800Y165500D03*
X106200Y148700D03*
X106600Y140300D03*
X111000Y106700D03*
Y131900D03*
X115800Y69500D03*
X119100Y142700D03*
X124100Y85100D03*
X126600Y110300D03*
X129000Y147500D03*
X129100Y97100D03*
X131400Y106700D03*
X132600Y80300D03*
X136200Y85100D03*
Y110300D03*
X137400Y137900D03*
Y149900D03*
X142200Y111500D03*
Y134300D03*
Y147500D03*
X148200Y99500D03*
Y111500D03*
X149100Y80300D03*
X156600Y133100D03*
Y148700D03*
Y165500D03*
X160200Y101900D03*
X160600Y137900D03*
X165000Y110300D03*
Y131900D03*
X166200Y69500D03*
Y80300D03*
Y101900D03*
X173400Y142700D03*
X175800Y101900D03*
X176600Y81500D03*
X179100Y111500D03*
X183000Y97100D03*
Y147500D03*
X184200Y111500D03*
X186600Y82700D03*
X189000Y137900D03*
Y147500D03*
X190200Y110300D03*
X195000Y134300D03*
Y147500D03*
X196200Y110300D03*
X199800Y81500D03*
Y101900D03*
X202200Y110300D03*
X206600Y134300D03*
X207000Y147500D03*
X209400Y165500D03*
X210600Y99500D03*
Y137900D03*
X211600Y81500D03*
X215400Y109100D03*
Y131900D03*
X219000Y77900D03*
X221400Y142700D03*
X222600Y100700D03*
X226200Y106700D03*
Y137900D03*
X231600Y112700D03*
X234100Y76700D03*
X235100Y147100D03*
X235800Y137900D03*
X237000Y101900D03*
Y111500D03*
X240600Y148700D03*
X241800Y136700D03*
X246600Y147500D03*
X251400Y98300D03*
Y112700D03*
X252600Y140300D03*
X258600Y22700D03*
Y35900D03*
Y51500D03*
X261000Y103100D03*
X262200Y165500D03*
X263400Y136700D03*
X265800Y109100D03*
Y131900D03*
X267000Y98300D03*
X270600Y143900D03*
X273000Y99500D03*
X276600Y107900D03*
X281400Y99500D03*
X285000Y111500D03*
X286600Y104300D03*
X287400Y147500D03*
X293400Y136700D03*
Y148700D03*
X299400Y107900D03*
Y140300D03*
Y148700D03*
X306600Y99500D03*
X313800Y147500D03*
X314100Y165500D03*
X316200Y140300D03*
X324600Y136700D03*
D02*
D21*
X14100Y35600D03*
X75124D03*
D02*
D97*
X16600Y156702D02*
Y165500D01*
X46600Y156702D02*
Y169000D01*
X49100Y171500D01*
X56600Y181100D02*
Y156702D01*
X69100D02*
Y164300D01*
X74209D01*
X77809Y167900D01*
X69100Y164300D02*
Y171500D01*
X88991Y167900D02*
Y181100D01*
X99100Y156702D02*
Y171500D01*
X109100Y181100D02*
Y156702D01*
X121600D02*
Y165500D01*
X127809D01*
X129009Y166700D01*
X121600Y165500D02*
Y171500D01*
X140191Y166700D02*
Y174100D01*
X138191D01*
Y181100D01*
X151600Y156702D02*
Y171500D01*
X161400Y181100D02*
Y156902D01*
X161600Y156702D01*
X174100D02*
Y165500D01*
X181009D01*
X183409Y167900D01*
X174100Y165500D02*
Y171500D01*
X194591Y167900D02*
Y181100D01*
X204100Y156702D02*
Y171500D01*
X214200Y181100D02*
Y156802D01*
X214100Y156702D01*
X226600D02*
Y165500D01*
X233809D01*
X236209Y167900D01*
X226600Y165500D02*
Y171500D01*
X247391Y167900D02*
Y181100D01*
X256600Y156702D02*
Y171500D01*
X267000Y181100D02*
Y157102D01*
X266600Y156702D01*
X279100D02*
Y164300D01*
X285409D01*
X287809Y166700D01*
X279100Y164300D02*
Y171500D01*
X298991Y166700D02*
Y181100D01*
X306600Y171500D02*
X309100Y169000D01*
Y156702D01*
X319100Y181100D02*
Y156702D01*
D02*
D98*
X57000Y181100D02*
X56600D01*
X86600Y50600D02*
X34100D01*
Y63100D01*
X86600D02*
Y50600D01*
X88991Y181100D02*
X57000D01*
X94100Y10600D02*
X114500D01*
X117000Y13100D01*
Y43100D01*
X109100Y181100D02*
X88991D01*
X111600Y43100D02*
X109100D01*
X101600Y50600D01*
X86600D01*
X117000Y43100D02*
X111600D01*
X138191Y181100D02*
X109100D01*
X139100Y43100D02*
X117000D01*
X139100Y63100D02*
Y43100D01*
X161400Y181100D02*
X138191D01*
X191600Y43100D02*
X139100D01*
X191600Y63100D02*
Y43100D01*
X194591Y181100D02*
X161400D01*
X214200D02*
X194591D01*
X244100Y43100D02*
X191600D01*
X244100Y63100D02*
Y43100D01*
X247391Y181100D02*
X214200D01*
X267000D02*
X247391D01*
X271305D02*
X267000D01*
X271305D02*
X298991D01*
X271305Y190600D02*
Y181100D01*
X296600Y43100D02*
X244100D01*
X296600Y63100D02*
Y43100D01*
X298991Y181100D02*
X319100D01*
Y180600D01*
X331600Y168100D01*
Y50600D01*
X324100Y43100D01*
X296600D01*
D02*
D99*
X49100Y171500D03*
X57000Y181100D03*
X69100Y171500D03*
X99100D03*
X121600D03*
X151600D03*
X174100D03*
X204100D03*
X226600D03*
X256600D03*
X279100D03*
X306600D03*
D02*
D100*
X12600Y13100D03*
Y202700D03*
X330600Y13100D03*
Y202700D03*
D02*
D101*
X141305Y190600D03*
D02*
D102*
Y90600D03*
X151305D03*
Y190600D03*
X161305Y90600D03*
Y190600D03*
X171305Y90600D03*
Y190600D03*
X181305Y90600D03*
Y190600D03*
X191305Y90600D03*
Y190600D03*
X201305Y90600D03*
Y190600D03*
X211305Y90600D03*
Y190600D03*
X221305Y90600D03*
Y190600D03*
X231305Y90600D03*
Y190600D03*
X241305Y90600D03*
Y190600D03*
X251305Y90600D03*
Y190600D03*
X261305Y90600D03*
Y190600D03*
X271305Y90600D03*
Y190600D03*
X281305Y90600D03*
Y190600D03*
X291305Y90600D03*
Y190600D03*
X301305Y90600D03*
Y190600D03*
X311305Y90600D03*
Y190600D03*
X321305Y90600D03*
Y190600D03*
D02*
D103*
X14100Y63100D03*
X19100Y73100D03*
X24100Y63100D03*
X29100Y73100D03*
X34100Y63100D03*
X39100Y73100D03*
X44100Y63100D03*
X49100Y73100D03*
X54100Y63100D03*
X66600D03*
X71600Y73100D03*
X76600Y63100D03*
X81600Y73100D03*
X86600Y63100D03*
X91600Y73100D03*
X94100Y10600D03*
Y20600D03*
Y30600D03*
Y40600D03*
X96600Y63100D03*
X101600Y73100D03*
X106600Y63100D03*
X119100D03*
X124100Y73100D03*
X129100Y63100D03*
X134100Y73100D03*
X139100Y63100D03*
X144100Y73100D03*
X149100Y63100D03*
X154100Y73100D03*
X159100Y63100D03*
X171600D03*
X176600Y73100D03*
X181600Y63100D03*
X186600Y73100D03*
X191600Y63100D03*
X196600Y73100D03*
X201600Y63100D03*
X206600Y73100D03*
X211600Y63100D03*
X224100D03*
X229100Y73100D03*
X234100Y63100D03*
X239100Y73100D03*
X244100Y63100D03*
X249100Y73100D03*
X254100Y63100D03*
X259100Y73100D03*
X264100Y63100D03*
X276600D03*
X281600Y73100D03*
X286600Y63100D03*
X291600Y73100D03*
X296600Y63100D03*
X301600Y73100D03*
X306600Y63100D03*
X311600Y73100D03*
X316600Y63100D03*
D02*
D104*
X77809Y167900D03*
X88991D03*
X129009Y166700D03*
X140191D03*
X183409Y167900D03*
X194591D03*
X236209D03*
X247391D03*
X287809Y166700D03*
X298991D03*
D02*
D114*
X11600Y119498D03*
Y156702D03*
X16600Y119498D03*
Y156702D03*
X21600Y119498D03*
Y156702D03*
X26600Y119498D03*
Y156702D03*
X31600Y119498D03*
Y156702D03*
X36600Y119498D03*
Y156702D03*
X41600Y119498D03*
Y156702D03*
X46600Y119498D03*
Y156702D03*
X51600Y119498D03*
Y156702D03*
X56600Y119498D03*
Y156702D03*
X64100Y119498D03*
Y156702D03*
X69100Y119498D03*
Y156702D03*
X74100Y119498D03*
Y156702D03*
X79100Y119498D03*
Y156702D03*
X84100Y119498D03*
Y156702D03*
X89100Y119498D03*
Y156702D03*
X94100Y119498D03*
Y156702D03*
X99100Y119498D03*
Y156702D03*
X104100Y119498D03*
Y156702D03*
X109100Y119498D03*
Y156702D03*
X116600Y119498D03*
Y156702D03*
X121600Y119498D03*
Y156702D03*
X126600Y119498D03*
Y156702D03*
X131600Y119498D03*
Y156702D03*
X136600Y119498D03*
Y156702D03*
X141600Y119498D03*
Y156702D03*
X146600Y119498D03*
Y156702D03*
X151600Y119498D03*
Y156702D03*
X156600Y119498D03*
Y156702D03*
X161600Y119498D03*
Y156702D03*
X169100Y119498D03*
Y156702D03*
X174100Y119498D03*
Y156702D03*
X179100Y119498D03*
Y156702D03*
X184100Y119498D03*
Y156702D03*
X189100Y119498D03*
Y156702D03*
X194100Y119498D03*
Y156702D03*
X199100Y119498D03*
Y156702D03*
X204100Y119498D03*
Y156702D03*
X209100Y119498D03*
Y156702D03*
X214100Y119498D03*
Y156702D03*
X221600Y119498D03*
Y156702D03*
X226600Y119498D03*
Y156702D03*
X231600Y119498D03*
Y156702D03*
X236600Y119498D03*
Y156702D03*
X241600Y119498D03*
Y156702D03*
X246600Y119498D03*
Y156702D03*
X251600Y119498D03*
Y156702D03*
X256600Y119498D03*
Y156702D03*
X261600Y119498D03*
Y156702D03*
X266600Y119498D03*
Y156702D03*
X274100Y119498D03*
Y156702D03*
X279100Y119498D03*
Y156702D03*
X284100Y119498D03*
Y156702D03*
X289100Y119498D03*
Y156702D03*
X294100Y119498D03*
Y156702D03*
X299100Y119498D03*
Y156702D03*
X304100Y119498D03*
Y156702D03*
X309100Y119498D03*
Y156702D03*
X314100Y119498D03*
Y156702D03*
X319100Y119498D03*
Y156702D03*
X0Y0D02*
M02*
