G04 DesignSpark PCB Gerber Version 10.0 Build 5299*
%FSLAX35Y35*%
%MOIN*%
%ADD116R,0.02159X0.07277*%
%ADD110R,0.03655X0.06962*%
X0Y0D02*
D02*
D110*
X77809Y167900D03*
X88991D03*
X129009Y166700D03*
X140191D03*
X183409Y167900D03*
X194591D03*
X236209D03*
X247391D03*
X287809Y166700D03*
X298991D03*
D02*
D116*
X11600Y119498D03*
Y156702D03*
X16600Y119498D03*
Y156702D03*
X21600Y119498D03*
Y156702D03*
X26600Y119498D03*
Y156702D03*
X31600Y119498D03*
Y156702D03*
X36600Y119498D03*
Y156702D03*
X41600Y119498D03*
Y156702D03*
X46600Y119498D03*
Y156702D03*
X51600Y119498D03*
Y156702D03*
X56600Y119498D03*
Y156702D03*
X64100Y119498D03*
Y156702D03*
X69100Y119498D03*
Y156702D03*
X74100Y119498D03*
Y156702D03*
X79100Y119498D03*
Y156702D03*
X84100Y119498D03*
Y156702D03*
X89100Y119498D03*
Y156702D03*
X94100Y119498D03*
Y156702D03*
X99100Y119498D03*
Y156702D03*
X104100Y119498D03*
Y156702D03*
X109100Y119498D03*
Y156702D03*
X116600Y119498D03*
Y156702D03*
X121600Y119498D03*
Y156702D03*
X126600Y119498D03*
Y156702D03*
X131600Y119498D03*
Y156702D03*
X136600Y119498D03*
Y156702D03*
X141600Y119498D03*
Y156702D03*
X146600Y119498D03*
Y156702D03*
X151600Y119498D03*
Y156702D03*
X156600Y119498D03*
Y156702D03*
X161600Y119498D03*
Y156702D03*
X169100Y119498D03*
Y156702D03*
X174100Y119498D03*
Y156702D03*
X179100Y119498D03*
Y156702D03*
X184100Y119498D03*
Y156702D03*
X189100Y119498D03*
Y156702D03*
X194100Y119498D03*
Y156702D03*
X199100Y119498D03*
Y156702D03*
X204100Y119498D03*
Y156702D03*
X209100Y119498D03*
Y156702D03*
X214100Y119498D03*
Y156702D03*
X221600Y119498D03*
Y156702D03*
X226600Y119498D03*
Y156702D03*
X231600Y119498D03*
Y156702D03*
X236600Y119498D03*
Y156702D03*
X241600Y119498D03*
Y156702D03*
X246600Y119498D03*
Y156702D03*
X251600Y119498D03*
Y156702D03*
X256600Y119498D03*
Y156702D03*
X261600Y119498D03*
Y156702D03*
X266600Y119498D03*
Y156702D03*
X274100Y119498D03*
Y156702D03*
X279100Y119498D03*
Y156702D03*
X284100Y119498D03*
Y156702D03*
X289100Y119498D03*
Y156702D03*
X294100Y119498D03*
Y156702D03*
X299100Y119498D03*
Y156702D03*
X304100Y119498D03*
Y156702D03*
X309100Y119498D03*
Y156702D03*
X314100Y119498D03*
Y156702D03*
X319100Y119498D03*
Y156702D03*
X0Y0D02*
M02*
